<?xml version="1.0" encoding="utf-8" standalone="no"?>
<!DOCTYPE svg PUBLIC "-//W3C//DTD SVG 1.1//EN"
  "http://www.w3.org/Graphics/SVG/1.1/DTD/svg11.dtd">
<svg xmlns:xlink="http://www.w3.org/1999/xlink" width="648pt" height="288pt" viewBox="0 0 648 288" xmlns="http://www.w3.org/2000/svg" version="1.1">
 <metadata>
  <rdf:RDF xmlns:dc="http://purl.org/dc/elements/1.1/" xmlns:cc="http://creativecommons.org/ns#" xmlns:rdf="http://www.w3.org/1999/02/22-rdf-syntax-ns#">
   <cc:Work>
    <dc:type rdf:resource="http://purl.org/dc/dcmitype/StillImage"/>
    <dc:date>2024-10-02T08:30:54.044551</dc:date>
    <dc:format>image/svg+xml</dc:format>
    <dc:creator>
     <cc:Agent>
      <dc:title>Matplotlib v3.9.2, https://matplotlib.org/</dc:title>
     </cc:Agent>
    </dc:creator>
   </cc:Work>
  </rdf:RDF>
 </metadata>
 <defs>
  <style type="text/css">*{stroke-linejoin: round; stroke-linecap: butt}</style>
 </defs>
 <g id="figure_1">
  <g id="patch_1">
   <path d="M 0 288 
L 648 288 
L 648 0 
L 0 0 
z
" style="fill: #ffffff"/>
  </g>
  <g id="axes_1">
   <g id="patch_2">
    <path d="M 37.896788 259.288647 
L 312.665332 259.288647 
L 312.665332 54.196058 
L 37.896788 54.196058 
z
" style="fill: #ffffff"/>
   </g>
   <g id="matplotlib.axis_1">
    <g id="xtick_1">
     <g id="line2d_1">
      <defs>
       <path id="m79392b0d6b" d="M 0 0 
L 0 3.5 
" style="stroke: #000000; stroke-width: 0.8"/>
      </defs>
      <g>
       <use xlink:href="#m79392b0d6b" x="37.896788" y="259.288647" style="stroke: #000000; stroke-width: 0.8"/>
      </g>
     </g>
     <g id="text_1">
      <!-- 1 -->
      <g transform="translate(35.406121 273.207145) scale(0.1 -0.1)">
       <defs>
        <path id="CMSS17-31" d="M 1818 4288 
L 1696 4288 
C 1350 3940 947 3890 538 3890 
L 538 3520 
C 723 3520 1024 3520 1325 3667 
L 1325 369 
L 570 369 
L 570 0 
L 2573 0 
L 2573 369 
L 1818 369 
L 1818 4288 
z
" transform="scale(0.015625)"/>
       </defs>
       <use xlink:href="#CMSS17-31" transform="scale(0.996264)"/>
      </g>
     </g>
    </g>
    <g id="xtick_2">
     <g id="line2d_2">
      <g>
       <use xlink:href="#m79392b0d6b" x="92.850497" y="259.288647" style="stroke: #000000; stroke-width: 0.8"/>
      </g>
     </g>
     <g id="text_2">
      <!-- 2 -->
      <g transform="translate(90.359829 273.207145) scale(0.1 -0.1)">
       <defs>
        <path id="CMSS17-32" d="M 1651 1357 
C 1830 1541 2099 1764 2285 1987 
C 2464 2204 2701 2511 2701 2957 
C 2701 3657 2227 4288 1421 4288 
C 787 4288 422 3893 250 3274 
L 499 2929 
C 640 3510 838 3880 1338 3880 
C 1888 3880 2195 3433 2195 2942 
C 2195 2355 1747 1901 1408 1563 
C 1030 1187 659 804 301 408 
L 301 0 
L 2701 0 
L 2701 433 
L 1613 433 
C 1536 433 1459 433 1382 433 
L 742 433 
L 742 439 
L 1651 1357 
z
" transform="scale(0.015625)"/>
       </defs>
       <use xlink:href="#CMSS17-32" transform="scale(0.996264)"/>
      </g>
     </g>
    </g>
    <g id="xtick_3">
     <g id="line2d_3">
      <g>
       <use xlink:href="#m79392b0d6b" x="147.804206" y="259.288647" style="stroke: #000000; stroke-width: 0.8"/>
      </g>
     </g>
     <g id="text_3">
      <!-- 4 -->
      <g transform="translate(145.313538 273.207145) scale(0.1 -0.1)">
       <defs>
        <path id="CMSS17-34" d="M 2253 1088 
L 2835 1088 
L 2835 1477 
L 2253 1477 
L 2253 4192 
L 1690 4192 
L 166 1477 
L 166 1088 
L 1747 1088 
L 1747 0 
L 2253 0 
L 2253 1088 
z
M 659 1477 
C 1030 2127 1766 3439 1766 3885 
L 1766 1477 
L 659 1477 
z
" transform="scale(0.015625)"/>
       </defs>
       <use xlink:href="#CMSS17-34" transform="scale(0.996264)"/>
      </g>
     </g>
    </g>
    <g id="xtick_4">
     <g id="line2d_4">
      <g>
       <use xlink:href="#m79392b0d6b" x="202.757915" y="259.288647" style="stroke: #000000; stroke-width: 0.8"/>
      </g>
     </g>
     <g id="text_4">
      <!-- 8 -->
      <g transform="translate(200.267247 273.207145) scale(0.1 -0.1)">
       <defs>
        <path id="CMSS17-38" d="M 1933 2222 
C 2419 2380 2669 2760 2669 3134 
C 2669 3722 2157 4229 1504 4229 
C 826 4229 333 3708 333 3144 
C 333 2780 576 2403 1069 2241 
C 442 1997 250 1512 250 1149 
C 250 446 819 -128 1498 -128 
C 2202 -128 2752 455 2752 1138 
C 2752 1557 2502 2000 1933 2222 
z
M 1504 2432 
C 1075 2432 787 2712 787 3136 
C 787 3566 1075 3840 1504 3840 
C 1901 3840 2214 3591 2214 3136 
C 2214 2687 1907 2432 1504 2432 
z
M 1504 267 
C 1139 267 749 517 749 1156 
C 749 1813 1184 2043 1498 2043 
C 1843 2043 2253 1800 2253 1156 
C 2253 491 1830 267 1504 267 
z
" transform="scale(0.015625)"/>
       </defs>
       <use xlink:href="#CMSS17-38" transform="scale(0.996264)"/>
      </g>
     </g>
    </g>
    <g id="xtick_5">
     <g id="line2d_5">
      <g>
       <use xlink:href="#m79392b0d6b" x="257.711623" y="259.288647" style="stroke: #000000; stroke-width: 0.8"/>
      </g>
     </g>
     <g id="text_5">
      <!-- 16 -->
      <g transform="translate(252.730288 273.207145) scale(0.1 -0.1)">
       <defs>
        <path id="CMSS17-36" d="M 2496 4101 
C 2227 4210 2035 4229 1856 4229 
C 1024 4229 250 3368 250 2006 
C 250 265 986 -128 1510 -128 
C 1798 -128 2086 -39 2362 280 
C 2643 617 2752 898 2752 1389 
C 2752 2179 2362 2880 1779 2880 
C 1357 2880 992 2657 768 2376 
C 832 3258 1254 3840 1862 3840 
C 2029 3840 2246 3816 2496 3710 
L 2496 4101 
z
M 774 1369 
C 774 1420 774 1452 781 1548 
C 781 2045 1069 2491 1536 2491 
C 1837 2491 1990 2332 2106 2135 
C 2240 1886 2246 1650 2246 1388 
C 2246 1140 2246 891 2099 637 
C 1978 439 1818 267 1510 267 
C 902 267 800 1114 774 1369 
z
" transform="scale(0.015625)"/>
       </defs>
       <use xlink:href="#CMSS17-31" transform="scale(0.996264)"/>
       <use xlink:href="#CMSS17-36" transform="translate(46.843624 0) scale(0.996264)"/>
      </g>
     </g>
    </g>
    <g id="xtick_6">
     <g id="line2d_6">
      <g>
       <use xlink:href="#m79392b0d6b" x="312.665332" y="259.288647" style="stroke: #000000; stroke-width: 0.8"/>
      </g>
     </g>
     <g id="text_6">
      <!-- 32 -->
      <g transform="translate(307.683997 273.207145) scale(0.1 -0.1)">
       <defs>
        <path id="CMSS17-33" d="M 1005 2025 
L 1440 2025 
C 2042 2025 2214 1507 2214 1146 
C 2214 653 1933 267 1472 267 
C 1114 267 608 444 320 912 
C 275 691 275 678 250 526 
C 550 88 1037 -128 1485 -128 
C 2214 -128 2752 473 2752 1138 
C 2752 1638 2400 2057 1920 2215 
C 2304 2424 2586 2816 2586 3273 
C 2586 3805 2093 4229 1491 4229 
C 941 4229 512 3892 333 3530 
C 378 3468 493 3284 550 3189 
C 691 3562 1056 3840 1485 3840 
C 1843 3840 2080 3607 2080 3271 
C 2080 2923 1856 2543 1478 2455 
C 1453 2455 1056 2417 1005 2411 
L 1005 2025 
z
" transform="scale(0.015625)"/>
       </defs>
       <use xlink:href="#CMSS17-33" transform="scale(0.996264)"/>
       <use xlink:href="#CMSS17-32" transform="translate(46.843624 0) scale(0.996264)"/>
      </g>
     </g>
    </g>
    <g id="text_7">
     <!-- Concurrent chunks -->
     <g transform="translate(136.316011 286.062822) scale(0.1 -0.1)">
      <defs>
       <path id="CMSS17-43" d="M 3501 714 
C 3072 427 2874 344 2355 344 
C 1459 344 934 1303 934 2179 
C 934 3112 1472 4032 2381 4032 
C 2790 4032 3059 3918 3386 3715 
L 3475 4217 
C 3168 4370 2778 4440 2387 4440 
C 1158 4440 397 3316 397 2179 
C 397 927 1299 -64 2323 -64 
C 2874 -64 3066 -19 3539 280 
L 3501 714 
z
" transform="scale(0.015625)"/>
       <path id="CMSS17-6f" d="M 2829 1356 
C 2829 2176 2221 2816 1504 2816 
C 768 2816 173 2157 173 1356 
C 173 544 787 -64 1498 -64 
C 2227 -64 2829 563 2829 1356 
z
M 1504 337 
C 1050 337 659 709 659 1408 
C 659 2151 1114 2427 1498 2427 
C 1914 2427 2342 2126 2342 1408 
C 2342 683 1926 337 1504 337 
z
" transform="scale(0.015625)"/>
       <path id="CMSS17-6e" d="M 2618 1877 
C 2618 2283 2522 2816 1798 2816 
C 1389 2816 1120 2606 941 2389 
L 941 2758 
L 474 2758 
L 474 0 
L 960 0 
L 960 1559 
C 960 1964 1114 2428 1549 2428 
C 2112 2428 2131 2048 2131 1829 
L 2131 0 
L 2618 0 
L 2618 1877 
z
" transform="scale(0.015625)"/>
       <path id="CMSS17-63" d="M 2464 2541 
C 2464 2585 2170 2714 2093 2739 
C 1882 2816 1613 2816 1542 2816 
C 710 2816 211 2093 211 1363 
C 211 595 768 -64 1517 -64 
C 1946 -64 2253 76 2502 242 
L 2464 664 
C 2189 453 1869 337 1523 337 
C 1024 337 698 774 698 1369 
C 698 1831 909 2414 1549 2414 
C 1901 2414 2099 2343 2394 2145 
L 2464 2541 
z
" transform="scale(0.015625)"/>
       <path id="CMSS17-75" d="M 2618 2739 
L 2131 2739 
L 2131 972 
C 2131 498 1786 306 1421 306 
C 998 306 960 447 960 709 
L 960 2739 
L 474 2739 
L 474 678 
C 474 179 646 -64 1088 -64 
C 1306 -64 1798 -13 2144 306 
L 2144 0 
L 2618 0 
L 2618 2739 
z
" transform="scale(0.015625)"/>
       <path id="CMSS17-72" d="M 954 1363 
C 954 1965 1395 2368 1958 2368 
L 1958 2789 
C 1549 2789 1165 2585 934 2253 
L 934 2758 
L 480 2758 
L 480 0 
L 954 0 
L 954 1363 
z
" transform="scale(0.015625)"/>
       <path id="CMSS17-65" d="M 2502 1377 
C 2502 1590 2490 2003 2285 2345 
C 2061 2713 1696 2816 1421 2816 
C 755 2816 192 2188 192 1375 
C 192 582 774 -64 1510 -64 
C 1798 -64 2150 19 2470 248 
C 2470 274 2458 414 2451 420 
C 2451 433 2432 630 2432 656 
C 2125 407 1773 325 1517 325 
C 1107 325 666 667 646 1377 
L 2502 1377 
z
M 698 1728 
C 781 2084 1062 2421 1421 2421 
C 1517 2421 1965 2421 2080 1728 
L 698 1728 
z
" transform="scale(0.015625)"/>
       <path id="CMSS17-74" d="M 1069 2368 
L 1901 2368 
L 1901 2737 
L 1069 2737 
L 1069 3520 
L 614 3520 
L 614 2737 
L 109 2737 
L 109 2368 
L 602 2368 
L 602 749 
C 602 384 685 -64 1107 -64 
C 1427 -64 1722 25 2003 172 
L 1901 548 
C 1747 414 1562 337 1363 337 
C 1082 337 1069 696 1069 856 
L 1069 2368 
z
" transform="scale(0.015625)"/>
       <path id="CMSS17-68" d="M 2618 1891 
C 2618 2292 2522 2820 1798 2820 
C 1395 2820 1133 2623 947 2407 
L 947 4448 
L 474 4448 
L 474 32 
L 960 32 
L 960 1573 
C 960 1973 1114 2432 1549 2432 
C 2112 2432 2131 2056 2131 1839 
L 2131 32 
L 2618 32 
L 2618 1891 
z
" transform="scale(0.015625)"/>
       <path id="CMSS17-6b" d="M 1696 1688 
L 2688 2739 
L 2074 2739 
L 954 1554 
L 954 4416 
L 480 4416 
L 480 0 
L 947 0 
L 947 892 
L 1376 1344 
L 2278 0 
L 2822 0 
L 1696 1688 
z
" transform="scale(0.015625)"/>
       <path id="CMSS17-73" d="M 2061 2627 
C 1683 2807 1389 2807 1197 2807 
C 742 2807 198 2648 198 2003 
C 198 1359 902 1218 1094 1179 
C 1389 1122 1715 1058 1715 740 
C 1715 337 1254 337 1171 337 
C 915 337 563 407 243 638 
L 166 210 
C 531 0 883 -64 1178 -64 
C 1965 -64 2163 416 2163 781 
C 2163 1094 1984 1305 1862 1401 
C 1651 1568 1574 1587 1050 1696 
C 960 1709 646 1779 646 2066 
C 646 2432 1050 2432 1139 2432 
C 1555 2432 1811 2303 1984 2208 
L 2061 2627 
z
" transform="scale(0.015625)"/>
      </defs>
      <use xlink:href="#CMSS17-43" transform="scale(0.996264)"/>
      <use xlink:href="#CMSS17-6f" transform="translate(59.855772 0) scale(0.996264)"/>
      <use xlink:href="#CMSS17-6e" transform="translate(106.699395 0) scale(0.996264)"/>
      <use xlink:href="#CMSS17-63" transform="translate(154.904338 0) scale(0.996264)"/>
      <use xlink:href="#CMSS17-75" transform="translate(196.54316 0) scale(0.996264)"/>
      <use xlink:href="#CMSS17-72" transform="translate(244.748103 0) scale(0.996264)"/>
      <use xlink:href="#CMSS17-72" transform="translate(276.657876 0) scale(0.996264)"/>
      <use xlink:href="#CMSS17-65" transform="translate(308.567649 0) scale(0.996264)"/>
      <use xlink:href="#CMSS17-6e" transform="translate(350.206471 0) scale(0.996264)"/>
      <use xlink:href="#CMSS17-74" transform="translate(398.411414 0) scale(0.996264)"/>
      <use xlink:href="#CMSS17-63" transform="translate(463.472093 0) scale(0.996264)"/>
      <use xlink:href="#CMSS17-68" transform="translate(505.110915 0) scale(0.996264)"/>
      <use xlink:href="#CMSS17-75" transform="translate(553.315858 0) scale(0.996264)"/>
      <use xlink:href="#CMSS17-6e" transform="translate(601.520802 0) scale(0.996264)"/>
      <use xlink:href="#CMSS17-6b" transform="translate(649.725745 0) scale(0.996264)"/>
      <use xlink:href="#CMSS17-73" transform="translate(695.328234 0) scale(0.996264)"/>
     </g>
    </g>
   </g>
   <g id="matplotlib.axis_2">
    <g id="ytick_1">
     <g id="line2d_7">
      <path d="M 37.896788 259.288647 
L 312.665332 259.288647 
" clip-path="url(#pf9e1004854)" style="fill: none; stroke: #b0b0b0; stroke-width: 0.8; stroke-linecap: square"/>
     </g>
     <g id="line2d_8">
      <defs>
       <path id="md39c3dacdc" d="M 0 0 
L -3.5 0 
" style="stroke: #000000; stroke-width: 0.8"/>
      </defs>
      <g>
       <use xlink:href="#md39c3dacdc" x="37.896788" y="259.288647" style="stroke: #000000; stroke-width: 0.8"/>
      </g>
     </g>
     <g id="text_8">
      <!-- $\mathdefault{10^{0}}$ -->
      <g transform="translate(16.96288 262.747896) scale(0.1 -0.1)">
       <defs>
        <path id="CMR17-31" d="M 1702 4058 
C 1702 4192 1696 4192 1606 4192 
C 1357 3916 979 3827 621 3827 
C 602 3827 570 3827 563 3808 
C 557 3795 557 3782 557 3648 
C 755 3648 1088 3686 1344 3839 
L 1344 461 
C 1344 236 1331 160 781 160 
L 589 160 
L 589 0 
C 896 0 1216 0 1523 0 
C 1830 0 2150 0 2458 0 
L 2458 160 
L 2266 160 
C 1715 160 1702 230 1702 458 
L 1702 4058 
z
" transform="scale(0.015625)"/>
        <path id="CMR17-30" d="M 2688 2025 
C 2688 2416 2682 3080 2413 3591 
C 2176 4039 1798 4198 1466 4198 
C 1158 4198 768 4058 525 3597 
C 269 3118 243 2524 243 2025 
C 243 1661 250 1106 448 619 
C 723 -39 1216 -128 1466 -128 
C 1760 -128 2208 -7 2470 600 
C 2662 1042 2688 1559 2688 2025 
z
M 1466 -26 
C 1056 -26 813 325 723 812 
C 653 1188 653 1738 653 2096 
C 653 2588 653 2997 736 3387 
C 858 3929 1216 4096 1466 4096 
C 1728 4096 2067 3923 2189 3400 
C 2272 3036 2278 2607 2278 2096 
C 2278 1680 2278 1169 2202 792 
C 2067 95 1690 -26 1466 -26 
z
" transform="scale(0.015625)"/>
       </defs>
       <use xlink:href="#CMR17-31" transform="scale(0.996264)"/>
       <use xlink:href="#CMR17-30" transform="translate(45.690477 0) scale(0.996264)"/>
       <use xlink:href="#CMR17-30" transform="translate(91.380954 36.153639) scale(0.697382)"/>
      </g>
     </g>
    </g>
    <g id="ytick_2">
     <g id="line2d_9">
      <path d="M 37.896788 190.92445 
L 312.665332 190.92445 
" clip-path="url(#pf9e1004854)" style="fill: none; stroke: #b0b0b0; stroke-width: 0.8; stroke-linecap: square"/>
     </g>
     <g id="line2d_10">
      <g>
       <use xlink:href="#md39c3dacdc" x="37.896788" y="190.92445" style="stroke: #000000; stroke-width: 0.8"/>
      </g>
     </g>
     <g id="text_9">
      <!-- $\mathdefault{10^{1}}$ -->
      <g transform="translate(16.96288 194.3837) scale(0.1 -0.1)">
       <use xlink:href="#CMR17-31" transform="scale(0.996264)"/>
       <use xlink:href="#CMR17-30" transform="translate(45.690477 0) scale(0.996264)"/>
       <use xlink:href="#CMR17-31" transform="translate(91.380954 36.153639) scale(0.697382)"/>
      </g>
     </g>
    </g>
    <g id="ytick_3">
     <g id="line2d_11">
      <path d="M 37.896788 122.560254 
L 312.665332 122.560254 
" clip-path="url(#pf9e1004854)" style="fill: none; stroke: #b0b0b0; stroke-width: 0.8; stroke-linecap: square"/>
     </g>
     <g id="line2d_12">
      <g>
       <use xlink:href="#md39c3dacdc" x="37.896788" y="122.560254" style="stroke: #000000; stroke-width: 0.8"/>
      </g>
     </g>
     <g id="text_10">
      <!-- $\mathdefault{10^{2}}$ -->
      <g transform="translate(16.96288 126.019504) scale(0.1 -0.1)">
       <defs>
        <path id="CMR17-32" d="M 2669 989 
L 2554 989 
C 2490 536 2438 459 2413 420 
C 2381 369 1920 369 1830 369 
L 602 369 
C 832 619 1280 1072 1824 1597 
C 2214 1967 2669 2402 2669 3035 
C 2669 3790 2067 4224 1395 4224 
C 691 4224 262 3604 262 3030 
C 262 2780 448 2748 525 2748 
C 589 2748 781 2787 781 3010 
C 781 3207 614 3264 525 3264 
C 486 3264 448 3258 422 3245 
C 544 3790 915 4058 1306 4058 
C 1862 4058 2227 3617 2227 3035 
C 2227 2479 1901 2000 1536 1584 
L 262 146 
L 262 0 
L 2515 0 
L 2669 989 
z
" transform="scale(0.015625)"/>
       </defs>
       <use xlink:href="#CMR17-31" transform="scale(0.996264)"/>
       <use xlink:href="#CMR17-30" transform="translate(45.690477 0) scale(0.996264)"/>
       <use xlink:href="#CMR17-32" transform="translate(91.380954 36.153639) scale(0.697382)"/>
      </g>
     </g>
    </g>
    <g id="ytick_4">
     <g id="line2d_13">
      <path d="M 37.896788 54.196058 
L 312.665332 54.196058 
" clip-path="url(#pf9e1004854)" style="fill: none; stroke: #b0b0b0; stroke-width: 0.8; stroke-linecap: square"/>
     </g>
     <g id="line2d_14">
      <g>
       <use xlink:href="#md39c3dacdc" x="37.896788" y="54.196058" style="stroke: #000000; stroke-width: 0.8"/>
      </g>
     </g>
     <g id="text_11">
      <!-- $\mathdefault{10^{3}}$ -->
      <g transform="translate(16.96288 57.655307) scale(0.1 -0.1)">
       <defs>
        <path id="CMR17-33" d="M 1414 2157 
C 1984 2157 2234 1662 2234 1090 
C 2234 320 1824 25 1453 25 
C 1114 25 563 194 390 693 
C 422 680 454 680 486 680 
C 640 680 755 782 755 948 
C 755 1133 614 1216 486 1216 
C 378 1216 211 1165 211 926 
C 211 335 787 -128 1466 -128 
C 2176 -128 2720 430 2720 1085 
C 2720 1707 2208 2157 1600 2227 
C 2086 2328 2554 2756 2554 3329 
C 2554 3820 2048 4179 1472 4179 
C 890 4179 378 3829 378 3329 
C 378 3110 544 3072 627 3072 
C 762 3072 877 3155 877 3321 
C 877 3486 762 3569 627 3569 
C 602 3569 570 3569 544 3557 
C 730 3959 1235 4032 1459 4032 
C 1683 4032 2106 3925 2106 3320 
C 2106 3143 2080 2828 1862 2550 
C 1670 2304 1453 2304 1242 2284 
C 1210 2284 1062 2269 1037 2269 
C 992 2263 966 2257 966 2208 
C 966 2163 973 2157 1101 2157 
L 1414 2157 
z
" transform="scale(0.015625)"/>
       </defs>
       <use xlink:href="#CMR17-31" transform="scale(0.996264)"/>
       <use xlink:href="#CMR17-30" transform="translate(45.690477 0) scale(0.996264)"/>
       <use xlink:href="#CMR17-33" transform="translate(91.380954 36.153639) scale(0.697382)"/>
      </g>
     </g>
    </g>
    <g id="ytick_5">
     <g id="line2d_15">
      <path d="M 37.896788 238.708973 
L 312.665332 238.708973 
" clip-path="url(#pf9e1004854)" style="fill: none; stroke: #b0b0b0; stroke-width: 0.8; stroke-linecap: square"/>
     </g>
     <g id="line2d_16">
      <defs>
       <path id="m751424d3a8" d="M 0 0 
L -2 0 
" style="stroke: #000000; stroke-width: 0.6"/>
      </defs>
      <g>
       <use xlink:href="#m751424d3a8" x="37.896788" y="238.708973" style="stroke: #000000; stroke-width: 0.6"/>
      </g>
     </g>
    </g>
    <g id="ytick_6">
     <g id="line2d_17">
      <path d="M 37.896788 226.670636 
L 312.665332 226.670636 
" clip-path="url(#pf9e1004854)" style="fill: none; stroke: #b0b0b0; stroke-width: 0.8; stroke-linecap: square"/>
     </g>
     <g id="line2d_18">
      <g>
       <use xlink:href="#m751424d3a8" x="37.896788" y="226.670636" style="stroke: #000000; stroke-width: 0.6"/>
      </g>
     </g>
    </g>
    <g id="ytick_7">
     <g id="line2d_19">
      <path d="M 37.896788 218.129299 
L 312.665332 218.129299 
" clip-path="url(#pf9e1004854)" style="fill: none; stroke: #b0b0b0; stroke-width: 0.8; stroke-linecap: square"/>
     </g>
     <g id="line2d_20">
      <g>
       <use xlink:href="#m751424d3a8" x="37.896788" y="218.129299" style="stroke: #000000; stroke-width: 0.6"/>
      </g>
     </g>
    </g>
    <g id="ytick_8">
     <g id="line2d_21">
      <path d="M 37.896788 211.504124 
L 312.665332 211.504124 
" clip-path="url(#pf9e1004854)" style="fill: none; stroke: #b0b0b0; stroke-width: 0.8; stroke-linecap: square"/>
     </g>
     <g id="line2d_22">
      <g>
       <use xlink:href="#m751424d3a8" x="37.896788" y="211.504124" style="stroke: #000000; stroke-width: 0.6"/>
      </g>
     </g>
    </g>
    <g id="ytick_9">
     <g id="line2d_23">
      <path d="M 37.896788 206.090962 
L 312.665332 206.090962 
" clip-path="url(#pf9e1004854)" style="fill: none; stroke: #b0b0b0; stroke-width: 0.8; stroke-linecap: square"/>
     </g>
     <g id="line2d_24">
      <g>
       <use xlink:href="#m751424d3a8" x="37.896788" y="206.090962" style="stroke: #000000; stroke-width: 0.6"/>
      </g>
     </g>
    </g>
    <g id="ytick_10">
     <g id="line2d_25">
      <path d="M 37.896788 201.514198 
L 312.665332 201.514198 
" clip-path="url(#pf9e1004854)" style="fill: none; stroke: #b0b0b0; stroke-width: 0.8; stroke-linecap: square"/>
     </g>
     <g id="line2d_26">
      <g>
       <use xlink:href="#m751424d3a8" x="37.896788" y="201.514198" style="stroke: #000000; stroke-width: 0.6"/>
      </g>
     </g>
    </g>
    <g id="ytick_11">
     <g id="line2d_27">
      <path d="M 37.896788 197.549626 
L 312.665332 197.549626 
" clip-path="url(#pf9e1004854)" style="fill: none; stroke: #b0b0b0; stroke-width: 0.8; stroke-linecap: square"/>
     </g>
     <g id="line2d_28">
      <g>
       <use xlink:href="#m751424d3a8" x="37.896788" y="197.549626" style="stroke: #000000; stroke-width: 0.6"/>
      </g>
     </g>
    </g>
    <g id="ytick_12">
     <g id="line2d_29">
      <path d="M 37.896788 194.052625 
L 312.665332 194.052625 
" clip-path="url(#pf9e1004854)" style="fill: none; stroke: #b0b0b0; stroke-width: 0.8; stroke-linecap: square"/>
     </g>
     <g id="line2d_30">
      <g>
       <use xlink:href="#m751424d3a8" x="37.896788" y="194.052625" style="stroke: #000000; stroke-width: 0.6"/>
      </g>
     </g>
    </g>
    <g id="ytick_13">
     <g id="line2d_31">
      <path d="M 37.896788 170.344777 
L 312.665332 170.344777 
" clip-path="url(#pf9e1004854)" style="fill: none; stroke: #b0b0b0; stroke-width: 0.8; stroke-linecap: square"/>
     </g>
     <g id="line2d_32">
      <g>
       <use xlink:href="#m751424d3a8" x="37.896788" y="170.344777" style="stroke: #000000; stroke-width: 0.6"/>
      </g>
     </g>
    </g>
    <g id="ytick_14">
     <g id="line2d_33">
      <path d="M 37.896788 158.306439 
L 312.665332 158.306439 
" clip-path="url(#pf9e1004854)" style="fill: none; stroke: #b0b0b0; stroke-width: 0.8; stroke-linecap: square"/>
     </g>
     <g id="line2d_34">
      <g>
       <use xlink:href="#m751424d3a8" x="37.896788" y="158.306439" style="stroke: #000000; stroke-width: 0.6"/>
      </g>
     </g>
    </g>
    <g id="ytick_15">
     <g id="line2d_35">
      <path d="M 37.896788 149.765103 
L 312.665332 149.765103 
" clip-path="url(#pf9e1004854)" style="fill: none; stroke: #b0b0b0; stroke-width: 0.8; stroke-linecap: square"/>
     </g>
     <g id="line2d_36">
      <g>
       <use xlink:href="#m751424d3a8" x="37.896788" y="149.765103" style="stroke: #000000; stroke-width: 0.6"/>
      </g>
     </g>
    </g>
    <g id="ytick_16">
     <g id="line2d_37">
      <path d="M 37.896788 143.139928 
L 312.665332 143.139928 
" clip-path="url(#pf9e1004854)" style="fill: none; stroke: #b0b0b0; stroke-width: 0.8; stroke-linecap: square"/>
     </g>
     <g id="line2d_38">
      <g>
       <use xlink:href="#m751424d3a8" x="37.896788" y="143.139928" style="stroke: #000000; stroke-width: 0.6"/>
      </g>
     </g>
    </g>
    <g id="ytick_17">
     <g id="line2d_39">
      <path d="M 37.896788 137.726766 
L 312.665332 137.726766 
" clip-path="url(#pf9e1004854)" style="fill: none; stroke: #b0b0b0; stroke-width: 0.8; stroke-linecap: square"/>
     </g>
     <g id="line2d_40">
      <g>
       <use xlink:href="#m751424d3a8" x="37.896788" y="137.726766" style="stroke: #000000; stroke-width: 0.6"/>
      </g>
     </g>
    </g>
    <g id="ytick_18">
     <g id="line2d_41">
      <path d="M 37.896788 133.150002 
L 312.665332 133.150002 
" clip-path="url(#pf9e1004854)" style="fill: none; stroke: #b0b0b0; stroke-width: 0.8; stroke-linecap: square"/>
     </g>
     <g id="line2d_42">
      <g>
       <use xlink:href="#m751424d3a8" x="37.896788" y="133.150002" style="stroke: #000000; stroke-width: 0.6"/>
      </g>
     </g>
    </g>
    <g id="ytick_19">
     <g id="line2d_43">
      <path d="M 37.896788 129.18543 
L 312.665332 129.18543 
" clip-path="url(#pf9e1004854)" style="fill: none; stroke: #b0b0b0; stroke-width: 0.8; stroke-linecap: square"/>
     </g>
     <g id="line2d_44">
      <g>
       <use xlink:href="#m751424d3a8" x="37.896788" y="129.18543" style="stroke: #000000; stroke-width: 0.6"/>
      </g>
     </g>
    </g>
    <g id="ytick_20">
     <g id="line2d_45">
      <path d="M 37.896788 125.688428 
L 312.665332 125.688428 
" clip-path="url(#pf9e1004854)" style="fill: none; stroke: #b0b0b0; stroke-width: 0.8; stroke-linecap: square"/>
     </g>
     <g id="line2d_46">
      <g>
       <use xlink:href="#m751424d3a8" x="37.896788" y="125.688428" style="stroke: #000000; stroke-width: 0.6"/>
      </g>
     </g>
    </g>
    <g id="ytick_21">
     <g id="line2d_47">
      <path d="M 37.896788 101.980581 
L 312.665332 101.980581 
" clip-path="url(#pf9e1004854)" style="fill: none; stroke: #b0b0b0; stroke-width: 0.8; stroke-linecap: square"/>
     </g>
     <g id="line2d_48">
      <g>
       <use xlink:href="#m751424d3a8" x="37.896788" y="101.980581" style="stroke: #000000; stroke-width: 0.6"/>
      </g>
     </g>
    </g>
    <g id="ytick_22">
     <g id="line2d_49">
      <path d="M 37.896788 89.942243 
L 312.665332 89.942243 
" clip-path="url(#pf9e1004854)" style="fill: none; stroke: #b0b0b0; stroke-width: 0.8; stroke-linecap: square"/>
     </g>
     <g id="line2d_50">
      <g>
       <use xlink:href="#m751424d3a8" x="37.896788" y="89.942243" style="stroke: #000000; stroke-width: 0.6"/>
      </g>
     </g>
    </g>
    <g id="ytick_23">
     <g id="line2d_51">
      <path d="M 37.896788 81.400907 
L 312.665332 81.400907 
" clip-path="url(#pf9e1004854)" style="fill: none; stroke: #b0b0b0; stroke-width: 0.8; stroke-linecap: square"/>
     </g>
     <g id="line2d_52">
      <g>
       <use xlink:href="#m751424d3a8" x="37.896788" y="81.400907" style="stroke: #000000; stroke-width: 0.6"/>
      </g>
     </g>
    </g>
    <g id="ytick_24">
     <g id="line2d_53">
      <path d="M 37.896788 74.775732 
L 312.665332 74.775732 
" clip-path="url(#pf9e1004854)" style="fill: none; stroke: #b0b0b0; stroke-width: 0.8; stroke-linecap: square"/>
     </g>
     <g id="line2d_54">
      <g>
       <use xlink:href="#m751424d3a8" x="37.896788" y="74.775732" style="stroke: #000000; stroke-width: 0.6"/>
      </g>
     </g>
    </g>
    <g id="ytick_25">
     <g id="line2d_55">
      <path d="M 37.896788 69.36257 
L 312.665332 69.36257 
" clip-path="url(#pf9e1004854)" style="fill: none; stroke: #b0b0b0; stroke-width: 0.8; stroke-linecap: square"/>
     </g>
     <g id="line2d_56">
      <g>
       <use xlink:href="#m751424d3a8" x="37.896788" y="69.36257" style="stroke: #000000; stroke-width: 0.6"/>
      </g>
     </g>
    </g>
    <g id="ytick_26">
     <g id="line2d_57">
      <path d="M 37.896788 64.785806 
L 312.665332 64.785806 
" clip-path="url(#pf9e1004854)" style="fill: none; stroke: #b0b0b0; stroke-width: 0.8; stroke-linecap: square"/>
     </g>
     <g id="line2d_58">
      <g>
       <use xlink:href="#m751424d3a8" x="37.896788" y="64.785806" style="stroke: #000000; stroke-width: 0.6"/>
      </g>
     </g>
    </g>
    <g id="ytick_27">
     <g id="line2d_59">
      <path d="M 37.896788 60.821233 
L 312.665332 60.821233 
" clip-path="url(#pf9e1004854)" style="fill: none; stroke: #b0b0b0; stroke-width: 0.8; stroke-linecap: square"/>
     </g>
     <g id="line2d_60">
      <g>
       <use xlink:href="#m751424d3a8" x="37.896788" y="60.821233" style="stroke: #000000; stroke-width: 0.6"/>
      </g>
     </g>
    </g>
    <g id="ytick_28">
     <g id="line2d_61">
      <path d="M 37.896788 57.324232 
L 312.665332 57.324232 
" clip-path="url(#pf9e1004854)" style="fill: none; stroke: #b0b0b0; stroke-width: 0.8; stroke-linecap: square"/>
     </g>
     <g id="line2d_62">
      <g>
       <use xlink:href="#m751424d3a8" x="37.896788" y="57.324232" style="stroke: #000000; stroke-width: 0.6"/>
      </g>
     </g>
    </g>
    <g id="text_12">
     <!-- Elapsed time (s) -->
     <g transform="translate(10.47222 190.836743) rotate(-90) scale(0.1 -0.1)">
      <defs>
       <path id="CMSS17-45" d="M 1958 433 
C 1446 433 1216 433 1101 433 
L 1101 2107 
L 3085 2107 
L 3085 2496 
L 1101 2496 
L 1101 4009 
L 1926 4009 
C 2003 4009 2080 4009 2157 4009 
L 3251 4009 
L 3251 4416 
L 563 4416 
L 563 0 
L 3334 0 
L 3334 433 
L 1958 433 
z
" transform="scale(0.015625)"/>
       <path id="CMSS17-6c" d="M 947 4416 
L 474 4416 
L 474 0 
L 947 0 
L 947 4416 
z
" transform="scale(0.015625)"/>
       <path id="CMSS17-61" d="M 2406 1791 
C 2406 2392 1978 2808 1402 2808 
C 1120 2808 813 2757 461 2553 
L 499 2135 
C 659 2248 934 2432 1395 2432 
C 1722 2432 1920 2180 1920 1782 
L 1920 1536 
C 896 1536 256 1238 256 726 
C 256 461 416 -64 947 -64 
C 1043 -64 1562 -64 1933 217 
L 1933 -19 
L 2406 -19 
L 2406 1791 
z
M 1920 816 
C 1920 701 1920 548 1728 434 
C 1562 325 1350 325 1261 325 
C 941 325 723 511 723 744 
C 723 1211 1722 1211 1920 1211 
L 1920 816 
z
" transform="scale(0.015625)"/>
       <path id="CMSS17-70" d="M 966 333 
C 1178 129 1466 -5 1773 -5 
C 2368 -5 2880 603 2880 1412 
C 2880 2159 2496 2816 1946 2816 
C 1626 2816 1242 2702 954 2472 
L 954 2765 
L 480 2765 
L 480 -1216 
L 966 -1216 
L 966 333 
z
M 966 2100 
C 1018 2176 1235 2415 1587 2415 
C 2035 2415 2394 1960 2394 1412 
C 2394 787 1958 384 1530 384 
C 1402 384 1267 415 1139 523 
C 966 674 966 768 966 857 
L 966 2100 
z
" transform="scale(0.015625)"/>
       <path id="CMSS17-64" d="M 2611 4416 
L 2138 4416 
L 2138 2438 
C 1939 2603 1613 2756 1254 2756 
C 672 2756 211 2131 211 1347 
C 211 562 666 -64 1235 -64 
C 1677 -64 1971 172 2125 306 
L 2125 -13 
L 2611 -13 
L 2611 4416 
z
M 2125 836 
C 2125 747 2125 653 1926 482 
C 1798 375 1645 325 1498 325 
C 1152 325 698 576 698 1340 
C 698 2134 1210 2368 1562 2368 
C 1798 2368 1990 2254 2125 2065 
L 2125 836 
z
" transform="scale(0.015625)"/>
       <path id="CMSS17-69" d="M 979 4183 
L 442 4183 
L 442 3648 
L 979 3648 
L 979 4183 
z
M 947 2739 
L 474 2739 
L 474 0 
L 947 0 
L 947 2739 
z
" transform="scale(0.015625)"/>
       <path id="CMSS17-6d" d="M 4288 1877 
C 4288 2308 4179 2816 3462 2816 
C 2982 2816 2694 2516 2566 2331 
C 2451 2670 2182 2816 1798 2816 
C 1363 2816 1088 2568 941 2389 
L 941 2758 
L 474 2758 
L 474 0 
L 960 0 
L 960 1559 
C 960 1939 1101 2428 1555 2428 
C 2138 2428 2138 2016 2138 1829 
L 2138 0 
L 2624 0 
L 2624 1559 
C 2624 1939 2765 2428 3219 2428 
C 3802 2428 3802 2016 3802 1829 
L 3802 0 
L 4288 0 
L 4288 1877 
z
" transform="scale(0.015625)"/>
       <path id="CMSS17-28" d="M 1613 4768 
C 1267 4417 474 3601 474 1588 
C 474 -433 1267 -1243 1613 -1600 
L 2003 -1600 
C 1216 -784 960 357 960 1581 
C 960 2798 1203 3946 2003 4768 
L 1613 4768 
z
" transform="scale(0.015625)"/>
       <path id="CMSS17-29" d="M 723 -1600 
C 1069 -1249 1862 -433 1862 1581 
C 1862 3601 1069 4411 723 4768 
L 333 4768 
C 1120 3952 1376 2811 1376 1588 
C 1376 370 1133 -778 333 -1600 
L 723 -1600 
z
" transform="scale(0.015625)"/>
      </defs>
      <use xlink:href="#CMSS17-45" transform="scale(0.996264)"/>
      <use xlink:href="#CMSS17-6c" transform="translate(55.892013 0) scale(0.996264)"/>
      <use xlink:href="#CMSS17-61" transform="translate(78.072736 0) scale(0.996264)"/>
      <use xlink:href="#CMSS17-70" transform="translate(122.994657 0) scale(0.996264)"/>
      <use xlink:href="#CMSS17-73" transform="translate(171.1996 0) scale(0.996264)"/>
      <use xlink:href="#CMSS17-65" transform="translate(207.113142 0) scale(0.996264)"/>
      <use xlink:href="#CMSS17-64" transform="translate(248.751964 0) scale(0.996264)"/>
      <use xlink:href="#CMSS17-74" transform="translate(328.18602 0) scale(0.996264)"/>
      <use xlink:href="#CMSS17-69" transform="translate(362.017587 0) scale(0.996264)"/>
      <use xlink:href="#CMSS17-6d" transform="translate(384.19831 0) scale(0.996264)"/>
      <use xlink:href="#CMSS17-65" transform="translate(458.427564 0) scale(0.996264)"/>
      <use xlink:href="#CMSS17-28" transform="translate(531.295499 0) scale(0.996264)"/>
      <use xlink:href="#CMSS17-73" transform="translate(567.729413 0) scale(0.996264)"/>
      <use xlink:href="#CMSS17-29" transform="translate(603.642955 0) scale(0.996264)"/>
     </g>
    </g>
   </g>
   <g id="line2d_63">
    <path d="M 37.896788 162.124338 
L 92.850497 179.304713 
L 147.804206 198.301316 
L 202.757915 217.396171 
L 257.711623 233.295811 
L 312.665332 233.544266 
" clip-path="url(#pf9e1004854)" style="fill: none; stroke-dasharray: 1.5,2.475; stroke-dashoffset: 0; stroke: #1f77b4; stroke-width: 1.5"/>
   </g>
   <g id="line2d_64">
    <path d="M 37.896788 141.63484 
L 92.850497 158.704972 
L 147.804206 165.65794 
L 202.757915 168.825581 
L 257.711623 171.371804 
L 312.665332 174.241564 
" clip-path="url(#pf9e1004854)" style="fill: none; stroke-dasharray: 1.5,2.475; stroke-dashoffset: 0; stroke: #ff7f0e; stroke-width: 1.5"/>
   </g>
   <g id="line2d_65">
    <path d="M 37.896788 127.532541 
L 92.850497 132.358998 
L 147.804206 132.691246 
L 202.757915 133.953941 
L 257.711623 136.805953 
L 312.665332 139.01103 
" clip-path="url(#pf9e1004854)" style="fill: none; stroke-dasharray: 1.5,2.475; stroke-dashoffset: 0; stroke: #2ca02c; stroke-width: 1.5"/>
   </g>
   <g id="line2d_66">
    <path d="M 37.896788 168.938632 
L 92.850497 183.734627 
L 147.804206 202.070772 
L 202.757915 220.685705 
L 257.711623 237.402103 
L 312.665332 237.687588 
" clip-path="url(#pf9e1004854)" style="fill: none; stroke-dasharray: 5.55,2.4; stroke-dashoffset: 0; stroke: #1f77b4; stroke-width: 1.5"/>
   </g>
   <g id="line2d_67">
    <path d="M 37.896788 144.494548 
L 92.850497 160.578367 
L 147.804206 166.663609 
L 202.757915 170.598222 
L 257.711623 172.292624 
L 312.665332 174.995859 
" clip-path="url(#pf9e1004854)" style="fill: none; stroke-dasharray: 5.55,2.4; stroke-dashoffset: 0; stroke: #ff7f0e; stroke-width: 1.5"/>
   </g>
   <g id="line2d_68">
    <path d="M 37.896788 121.89963 
L 92.850497 125.298431 
L 147.804206 125.058469 
L 202.757915 127.825336 
L 257.711623 130.751341 
L 312.665332 133.018808 
" clip-path="url(#pf9e1004854)" style="fill: none; stroke-dasharray: 5.55,2.4; stroke-dashoffset: 0; stroke: #2ca02c; stroke-width: 1.5"/>
   </g>
   <g id="line2d_69">
    <path d="M 37.896788 237.975844 
L 92.850497 246.468943 
L 147.804206 249.511555 
L 202.757915 250.159366 
L 257.711623 248.669223 
L 312.665332 249.511555 
" clip-path="url(#pf9e1004854)" style="fill: none; stroke: #1f77b4; stroke-width: 1.5; stroke-linecap: square"/>
   </g>
   <g id="line2d_70">
    <path d="M 37.896788 225.697099 
L 92.850497 236.014458 
L 147.804206 238.121029 
L 202.757915 240.863611 
L 257.711623 239.766751 
L 312.665332 236.561759 
" clip-path="url(#pf9e1004854)" style="fill: none; stroke: #ff7f0e; stroke-width: 1.5; stroke-linecap: square"/>
   </g>
   <g id="line2d_71">
    <path d="M 37.896788 155.920822 
L 92.850497 159.871047 
L 147.804206 160.685397 
L 202.757915 161.335811 
L 257.711623 159.663132 
L 312.665332 157.428833 
" clip-path="url(#pf9e1004854)" style="fill: none; stroke: #2ca02c; stroke-width: 1.5; stroke-linecap: square"/>
   </g>
   <g id="patch_3">
    <path d="M 37.896788 259.288647 
L 37.896788 54.196058 
" style="fill: none; stroke: #000000; stroke-width: 0.8; stroke-linejoin: miter; stroke-linecap: square"/>
   </g>
   <g id="patch_4">
    <path d="M 312.665332 259.288647 
L 312.665332 54.196058 
" style="fill: none; stroke: #000000; stroke-width: 0.8; stroke-linejoin: miter; stroke-linecap: square"/>
   </g>
   <g id="patch_5">
    <path d="M 37.896788 259.288647 
L 312.665332 259.288647 
" style="fill: none; stroke: #000000; stroke-width: 0.8; stroke-linejoin: miter; stroke-linecap: square"/>
   </g>
   <g id="patch_6">
    <path d="M 37.896788 54.196058 
L 312.665332 54.196058 
" style="fill: none; stroke: #000000; stroke-width: 0.8; stroke-linejoin: miter; stroke-linecap: square"/>
   </g>
  </g>
  <g id="axes_2">
   <g id="patch_7">
    <path d="M 365.249881 259.288647 
L 640.018425 259.288647 
L 640.018425 54.196058 
L 365.249881 54.196058 
z
" style="fill: #ffffff"/>
   </g>
   <g id="matplotlib.axis_3">
    <g id="xtick_7">
     <g id="line2d_72">
      <g>
       <use xlink:href="#m79392b0d6b" x="365.249881" y="259.288647" style="stroke: #000000; stroke-width: 0.8"/>
      </g>
     </g>
     <g id="text_13">
      <!-- 1 -->
      <g transform="translate(362.759213 273.207145) scale(0.1 -0.1)">
       <use xlink:href="#CMSS17-31" transform="scale(0.996264)"/>
      </g>
     </g>
    </g>
    <g id="xtick_8">
     <g id="line2d_73">
      <g>
       <use xlink:href="#m79392b0d6b" x="420.20359" y="259.288647" style="stroke: #000000; stroke-width: 0.8"/>
      </g>
     </g>
     <g id="text_14">
      <!-- 2 -->
      <g transform="translate(417.712922 273.207145) scale(0.1 -0.1)">
       <use xlink:href="#CMSS17-32" transform="scale(0.996264)"/>
      </g>
     </g>
    </g>
    <g id="xtick_9">
     <g id="line2d_74">
      <g>
       <use xlink:href="#m79392b0d6b" x="475.157298" y="259.288647" style="stroke: #000000; stroke-width: 0.8"/>
      </g>
     </g>
     <g id="text_15">
      <!-- 4 -->
      <g transform="translate(472.666631 273.207145) scale(0.1 -0.1)">
       <use xlink:href="#CMSS17-34" transform="scale(0.996264)"/>
      </g>
     </g>
    </g>
    <g id="xtick_10">
     <g id="line2d_75">
      <g>
       <use xlink:href="#m79392b0d6b" x="530.111007" y="259.288647" style="stroke: #000000; stroke-width: 0.8"/>
      </g>
     </g>
     <g id="text_16">
      <!-- 8 -->
      <g transform="translate(527.62034 273.207145) scale(0.1 -0.1)">
       <use xlink:href="#CMSS17-38" transform="scale(0.996264)"/>
      </g>
     </g>
    </g>
    <g id="xtick_11">
     <g id="line2d_76">
      <g>
       <use xlink:href="#m79392b0d6b" x="585.064716" y="259.288647" style="stroke: #000000; stroke-width: 0.8"/>
      </g>
     </g>
     <g id="text_17">
      <!-- 16 -->
      <g transform="translate(580.083381 273.207145) scale(0.1 -0.1)">
       <use xlink:href="#CMSS17-31" transform="scale(0.996264)"/>
       <use xlink:href="#CMSS17-36" transform="translate(46.843624 0) scale(0.996264)"/>
      </g>
     </g>
    </g>
    <g id="xtick_12">
     <g id="line2d_77">
      <g>
       <use xlink:href="#m79392b0d6b" x="640.018425" y="259.288647" style="stroke: #000000; stroke-width: 0.8"/>
      </g>
     </g>
     <g id="text_18">
      <!-- 32 -->
      <g transform="translate(635.037089 273.207145) scale(0.1 -0.1)">
       <use xlink:href="#CMSS17-33" transform="scale(0.996264)"/>
       <use xlink:href="#CMSS17-32" transform="translate(46.843624 0) scale(0.996264)"/>
      </g>
     </g>
    </g>
    <g id="text_19">
     <!-- Concurrent chunks -->
     <g transform="translate(463.669104 286.062822) scale(0.1 -0.1)">
      <use xlink:href="#CMSS17-43" transform="scale(0.996264)"/>
      <use xlink:href="#CMSS17-6f" transform="translate(59.855772 0) scale(0.996264)"/>
      <use xlink:href="#CMSS17-6e" transform="translate(106.699395 0) scale(0.996264)"/>
      <use xlink:href="#CMSS17-63" transform="translate(154.904338 0) scale(0.996264)"/>
      <use xlink:href="#CMSS17-75" transform="translate(196.54316 0) scale(0.996264)"/>
      <use xlink:href="#CMSS17-72" transform="translate(244.748103 0) scale(0.996264)"/>
      <use xlink:href="#CMSS17-72" transform="translate(276.657876 0) scale(0.996264)"/>
      <use xlink:href="#CMSS17-65" transform="translate(308.567649 0) scale(0.996264)"/>
      <use xlink:href="#CMSS17-6e" transform="translate(350.206471 0) scale(0.996264)"/>
      <use xlink:href="#CMSS17-74" transform="translate(398.411414 0) scale(0.996264)"/>
      <use xlink:href="#CMSS17-63" transform="translate(463.472093 0) scale(0.996264)"/>
      <use xlink:href="#CMSS17-68" transform="translate(505.110915 0) scale(0.996264)"/>
      <use xlink:href="#CMSS17-75" transform="translate(553.315858 0) scale(0.996264)"/>
      <use xlink:href="#CMSS17-6e" transform="translate(601.520802 0) scale(0.996264)"/>
      <use xlink:href="#CMSS17-6b" transform="translate(649.725745 0) scale(0.996264)"/>
      <use xlink:href="#CMSS17-73" transform="translate(695.328234 0) scale(0.996264)"/>
     </g>
    </g>
   </g>
   <g id="matplotlib.axis_4">
    <g id="ytick_29">
     <g id="line2d_78">
      <path d="M 365.249881 259.288647 
L 640.018425 259.288647 
" clip-path="url(#p3f4cab839c)" style="fill: none; stroke: #b0b0b0; stroke-width: 0.8; stroke-linecap: square"/>
     </g>
     <g id="line2d_79">
      <g>
       <use xlink:href="#md39c3dacdc" x="365.249881" y="259.288647" style="stroke: #000000; stroke-width: 0.8"/>
      </g>
     </g>
     <g id="text_20">
      <!-- $\mathdefault{10^{-2}}$ -->
      <g transform="translate(338.089307 262.747896) scale(0.1 -0.1)">
       <defs>
        <path id="CMSY10-0" d="M 4218 1472 
C 4326 1472 4442 1472 4442 1600 
C 4442 1728 4326 1728 4218 1728 
L 755 1728 
C 646 1728 531 1728 531 1600 
C 531 1472 646 1472 755 1472 
L 4218 1472 
z
" transform="scale(0.015625)"/>
       </defs>
       <use xlink:href="#CMR17-31" transform="scale(0.996264)"/>
       <use xlink:href="#CMR17-30" transform="translate(45.690477 0) scale(0.996264)"/>
       <use xlink:href="#CMSY10-0" transform="translate(91.380954 36.153639) scale(0.697382)"/>
       <use xlink:href="#CMR17-32" transform="translate(145.621947 36.153639) scale(0.697382)"/>
      </g>
     </g>
    </g>
    <g id="ytick_30">
     <g id="line2d_80">
      <path d="M 365.249881 208.0155 
L 640.018425 208.0155 
" clip-path="url(#p3f4cab839c)" style="fill: none; stroke: #b0b0b0; stroke-width: 0.8; stroke-linecap: square"/>
     </g>
     <g id="line2d_81">
      <g>
       <use xlink:href="#md39c3dacdc" x="365.249881" y="208.0155" style="stroke: #000000; stroke-width: 0.8"/>
      </g>
     </g>
     <g id="text_21">
      <!-- $\mathdefault{10^{-1}}$ -->
      <g transform="translate(338.089307 211.474749) scale(0.1 -0.1)">
       <use xlink:href="#CMR17-31" transform="scale(0.996264)"/>
       <use xlink:href="#CMR17-30" transform="translate(45.690477 0) scale(0.996264)"/>
       <use xlink:href="#CMSY10-0" transform="translate(91.380954 36.153639) scale(0.697382)"/>
       <use xlink:href="#CMR17-31" transform="translate(145.621947 36.153639) scale(0.697382)"/>
      </g>
     </g>
    </g>
    <g id="ytick_31">
     <g id="line2d_82">
      <path d="M 365.249881 156.742352 
L 640.018425 156.742352 
" clip-path="url(#p3f4cab839c)" style="fill: none; stroke: #b0b0b0; stroke-width: 0.8; stroke-linecap: square"/>
     </g>
     <g id="line2d_83">
      <g>
       <use xlink:href="#md39c3dacdc" x="365.249881" y="156.742352" style="stroke: #000000; stroke-width: 0.8"/>
      </g>
     </g>
     <g id="text_22">
      <!-- $\mathdefault{10^{0}}$ -->
      <g transform="translate(344.315973 160.201602) scale(0.1 -0.1)">
       <use xlink:href="#CMR17-31" transform="scale(0.996264)"/>
       <use xlink:href="#CMR17-30" transform="translate(45.690477 0) scale(0.996264)"/>
       <use xlink:href="#CMR17-30" transform="translate(91.380954 36.153639) scale(0.697382)"/>
      </g>
     </g>
    </g>
    <g id="ytick_32">
     <g id="line2d_84">
      <path d="M 365.249881 105.469205 
L 640.018425 105.469205 
" clip-path="url(#p3f4cab839c)" style="fill: none; stroke: #b0b0b0; stroke-width: 0.8; stroke-linecap: square"/>
     </g>
     <g id="line2d_85">
      <g>
       <use xlink:href="#md39c3dacdc" x="365.249881" y="105.469205" style="stroke: #000000; stroke-width: 0.8"/>
      </g>
     </g>
     <g id="text_23">
      <!-- $\mathdefault{10^{1}}$ -->
      <g transform="translate(344.315973 108.928455) scale(0.1 -0.1)">
       <use xlink:href="#CMR17-31" transform="scale(0.996264)"/>
       <use xlink:href="#CMR17-30" transform="translate(45.690477 0) scale(0.996264)"/>
       <use xlink:href="#CMR17-31" transform="translate(91.380954 36.153639) scale(0.697382)"/>
      </g>
     </g>
    </g>
    <g id="ytick_33">
     <g id="line2d_86">
      <path d="M 365.249881 54.196058 
L 640.018425 54.196058 
" clip-path="url(#p3f4cab839c)" style="fill: none; stroke: #b0b0b0; stroke-width: 0.8; stroke-linecap: square"/>
     </g>
     <g id="line2d_87">
      <g>
       <use xlink:href="#md39c3dacdc" x="365.249881" y="54.196058" style="stroke: #000000; stroke-width: 0.8"/>
      </g>
     </g>
     <g id="text_24">
      <!-- $\mathdefault{10^{2}}$ -->
      <g transform="translate(344.315973 57.655307) scale(0.1 -0.1)">
       <use xlink:href="#CMR17-31" transform="scale(0.996264)"/>
       <use xlink:href="#CMR17-30" transform="translate(45.690477 0) scale(0.996264)"/>
       <use xlink:href="#CMR17-32" transform="translate(91.380954 36.153639) scale(0.697382)"/>
      </g>
     </g>
    </g>
    <g id="ytick_34">
     <g id="line2d_88">
      <path d="M 365.249881 243.853891 
L 640.018425 243.853891 
" clip-path="url(#p3f4cab839c)" style="fill: none; stroke: #b0b0b0; stroke-width: 0.8; stroke-linecap: square"/>
     </g>
     <g id="line2d_89">
      <g>
       <use xlink:href="#m751424d3a8" x="365.249881" y="243.853891" style="stroke: #000000; stroke-width: 0.6"/>
      </g>
     </g>
    </g>
    <g id="ytick_35">
     <g id="line2d_90">
      <path d="M 365.249881 234.825138 
L 640.018425 234.825138 
" clip-path="url(#p3f4cab839c)" style="fill: none; stroke: #b0b0b0; stroke-width: 0.8; stroke-linecap: square"/>
     </g>
     <g id="line2d_91">
      <g>
       <use xlink:href="#m751424d3a8" x="365.249881" y="234.825138" style="stroke: #000000; stroke-width: 0.6"/>
      </g>
     </g>
    </g>
    <g id="ytick_36">
     <g id="line2d_92">
      <path d="M 365.249881 228.419136 
L 640.018425 228.419136 
" clip-path="url(#p3f4cab839c)" style="fill: none; stroke: #b0b0b0; stroke-width: 0.8; stroke-linecap: square"/>
     </g>
     <g id="line2d_93">
      <g>
       <use xlink:href="#m751424d3a8" x="365.249881" y="228.419136" style="stroke: #000000; stroke-width: 0.6"/>
      </g>
     </g>
    </g>
    <g id="ytick_37">
     <g id="line2d_94">
      <path d="M 365.249881 223.450255 
L 640.018425 223.450255 
" clip-path="url(#p3f4cab839c)" style="fill: none; stroke: #b0b0b0; stroke-width: 0.8; stroke-linecap: square"/>
     </g>
     <g id="line2d_95">
      <g>
       <use xlink:href="#m751424d3a8" x="365.249881" y="223.450255" style="stroke: #000000; stroke-width: 0.6"/>
      </g>
     </g>
    </g>
    <g id="ytick_38">
     <g id="line2d_96">
      <path d="M 365.249881 219.390383 
L 640.018425 219.390383 
" clip-path="url(#p3f4cab839c)" style="fill: none; stroke: #b0b0b0; stroke-width: 0.8; stroke-linecap: square"/>
     </g>
     <g id="line2d_97">
      <g>
       <use xlink:href="#m751424d3a8" x="365.249881" y="219.390383" style="stroke: #000000; stroke-width: 0.6"/>
      </g>
     </g>
    </g>
    <g id="ytick_39">
     <g id="line2d_98">
      <path d="M 365.249881 215.95781 
L 640.018425 215.95781 
" clip-path="url(#p3f4cab839c)" style="fill: none; stroke: #b0b0b0; stroke-width: 0.8; stroke-linecap: square"/>
     </g>
     <g id="line2d_99">
      <g>
       <use xlink:href="#m751424d3a8" x="365.249881" y="215.95781" style="stroke: #000000; stroke-width: 0.6"/>
      </g>
     </g>
    </g>
    <g id="ytick_40">
     <g id="line2d_100">
      <path d="M 365.249881 212.984381 
L 640.018425 212.984381 
" clip-path="url(#p3f4cab839c)" style="fill: none; stroke: #b0b0b0; stroke-width: 0.8; stroke-linecap: square"/>
     </g>
     <g id="line2d_101">
      <g>
       <use xlink:href="#m751424d3a8" x="365.249881" y="212.984381" style="stroke: #000000; stroke-width: 0.6"/>
      </g>
     </g>
    </g>
    <g id="ytick_41">
     <g id="line2d_102">
      <path d="M 365.249881 210.36163 
L 640.018425 210.36163 
" clip-path="url(#p3f4cab839c)" style="fill: none; stroke: #b0b0b0; stroke-width: 0.8; stroke-linecap: square"/>
     </g>
     <g id="line2d_103">
      <g>
       <use xlink:href="#m751424d3a8" x="365.249881" y="210.36163" style="stroke: #000000; stroke-width: 0.6"/>
      </g>
     </g>
    </g>
    <g id="ytick_42">
     <g id="line2d_104">
      <path d="M 365.249881 192.580744 
L 640.018425 192.580744 
" clip-path="url(#p3f4cab839c)" style="fill: none; stroke: #b0b0b0; stroke-width: 0.8; stroke-linecap: square"/>
     </g>
     <g id="line2d_105">
      <g>
       <use xlink:href="#m751424d3a8" x="365.249881" y="192.580744" style="stroke: #000000; stroke-width: 0.6"/>
      </g>
     </g>
    </g>
    <g id="ytick_43">
     <g id="line2d_106">
      <path d="M 365.249881 183.551991 
L 640.018425 183.551991 
" clip-path="url(#p3f4cab839c)" style="fill: none; stroke: #b0b0b0; stroke-width: 0.8; stroke-linecap: square"/>
     </g>
     <g id="line2d_107">
      <g>
       <use xlink:href="#m751424d3a8" x="365.249881" y="183.551991" style="stroke: #000000; stroke-width: 0.6"/>
      </g>
     </g>
    </g>
    <g id="ytick_44">
     <g id="line2d_108">
      <path d="M 365.249881 177.145989 
L 640.018425 177.145989 
" clip-path="url(#p3f4cab839c)" style="fill: none; stroke: #b0b0b0; stroke-width: 0.8; stroke-linecap: square"/>
     </g>
     <g id="line2d_109">
      <g>
       <use xlink:href="#m751424d3a8" x="365.249881" y="177.145989" style="stroke: #000000; stroke-width: 0.6"/>
      </g>
     </g>
    </g>
    <g id="ytick_45">
     <g id="line2d_110">
      <path d="M 365.249881 172.177108 
L 640.018425 172.177108 
" clip-path="url(#p3f4cab839c)" style="fill: none; stroke: #b0b0b0; stroke-width: 0.8; stroke-linecap: square"/>
     </g>
     <g id="line2d_111">
      <g>
       <use xlink:href="#m751424d3a8" x="365.249881" y="172.177108" style="stroke: #000000; stroke-width: 0.6"/>
      </g>
     </g>
    </g>
    <g id="ytick_46">
     <g id="line2d_112">
      <path d="M 365.249881 168.117236 
L 640.018425 168.117236 
" clip-path="url(#p3f4cab839c)" style="fill: none; stroke: #b0b0b0; stroke-width: 0.8; stroke-linecap: square"/>
     </g>
     <g id="line2d_113">
      <g>
       <use xlink:href="#m751424d3a8" x="365.249881" y="168.117236" style="stroke: #000000; stroke-width: 0.6"/>
      </g>
     </g>
    </g>
    <g id="ytick_47">
     <g id="line2d_114">
      <path d="M 365.249881 164.684663 
L 640.018425 164.684663 
" clip-path="url(#p3f4cab839c)" style="fill: none; stroke: #b0b0b0; stroke-width: 0.8; stroke-linecap: square"/>
     </g>
     <g id="line2d_115">
      <g>
       <use xlink:href="#m751424d3a8" x="365.249881" y="164.684663" style="stroke: #000000; stroke-width: 0.6"/>
      </g>
     </g>
    </g>
    <g id="ytick_48">
     <g id="line2d_116">
      <path d="M 365.249881 161.711234 
L 640.018425 161.711234 
" clip-path="url(#p3f4cab839c)" style="fill: none; stroke: #b0b0b0; stroke-width: 0.8; stroke-linecap: square"/>
     </g>
     <g id="line2d_117">
      <g>
       <use xlink:href="#m751424d3a8" x="365.249881" y="161.711234" style="stroke: #000000; stroke-width: 0.6"/>
      </g>
     </g>
    </g>
    <g id="ytick_49">
     <g id="line2d_118">
      <path d="M 365.249881 159.088483 
L 640.018425 159.088483 
" clip-path="url(#p3f4cab839c)" style="fill: none; stroke: #b0b0b0; stroke-width: 0.8; stroke-linecap: square"/>
     </g>
     <g id="line2d_119">
      <g>
       <use xlink:href="#m751424d3a8" x="365.249881" y="159.088483" style="stroke: #000000; stroke-width: 0.6"/>
      </g>
     </g>
    </g>
    <g id="ytick_50">
     <g id="line2d_120">
      <path d="M 365.249881 141.307597 
L 640.018425 141.307597 
" clip-path="url(#p3f4cab839c)" style="fill: none; stroke: #b0b0b0; stroke-width: 0.8; stroke-linecap: square"/>
     </g>
     <g id="line2d_121">
      <g>
       <use xlink:href="#m751424d3a8" x="365.249881" y="141.307597" style="stroke: #000000; stroke-width: 0.6"/>
      </g>
     </g>
    </g>
    <g id="ytick_51">
     <g id="line2d_122">
      <path d="M 365.249881 132.278844 
L 640.018425 132.278844 
" clip-path="url(#p3f4cab839c)" style="fill: none; stroke: #b0b0b0; stroke-width: 0.8; stroke-linecap: square"/>
     </g>
     <g id="line2d_123">
      <g>
       <use xlink:href="#m751424d3a8" x="365.249881" y="132.278844" style="stroke: #000000; stroke-width: 0.6"/>
      </g>
     </g>
    </g>
    <g id="ytick_52">
     <g id="line2d_124">
      <path d="M 365.249881 125.872842 
L 640.018425 125.872842 
" clip-path="url(#p3f4cab839c)" style="fill: none; stroke: #b0b0b0; stroke-width: 0.8; stroke-linecap: square"/>
     </g>
     <g id="line2d_125">
      <g>
       <use xlink:href="#m751424d3a8" x="365.249881" y="125.872842" style="stroke: #000000; stroke-width: 0.6"/>
      </g>
     </g>
    </g>
    <g id="ytick_53">
     <g id="line2d_126">
      <path d="M 365.249881 120.903961 
L 640.018425 120.903961 
" clip-path="url(#p3f4cab839c)" style="fill: none; stroke: #b0b0b0; stroke-width: 0.8; stroke-linecap: square"/>
     </g>
     <g id="line2d_127">
      <g>
       <use xlink:href="#m751424d3a8" x="365.249881" y="120.903961" style="stroke: #000000; stroke-width: 0.6"/>
      </g>
     </g>
    </g>
    <g id="ytick_54">
     <g id="line2d_128">
      <path d="M 365.249881 116.844089 
L 640.018425 116.844089 
" clip-path="url(#p3f4cab839c)" style="fill: none; stroke: #b0b0b0; stroke-width: 0.8; stroke-linecap: square"/>
     </g>
     <g id="line2d_129">
      <g>
       <use xlink:href="#m751424d3a8" x="365.249881" y="116.844089" style="stroke: #000000; stroke-width: 0.6"/>
      </g>
     </g>
    </g>
    <g id="ytick_55">
     <g id="line2d_130">
      <path d="M 365.249881 113.411516 
L 640.018425 113.411516 
" clip-path="url(#p3f4cab839c)" style="fill: none; stroke: #b0b0b0; stroke-width: 0.8; stroke-linecap: square"/>
     </g>
     <g id="line2d_131">
      <g>
       <use xlink:href="#m751424d3a8" x="365.249881" y="113.411516" style="stroke: #000000; stroke-width: 0.6"/>
      </g>
     </g>
    </g>
    <g id="ytick_56">
     <g id="line2d_132">
      <path d="M 365.249881 110.438087 
L 640.018425 110.438087 
" clip-path="url(#p3f4cab839c)" style="fill: none; stroke: #b0b0b0; stroke-width: 0.8; stroke-linecap: square"/>
     </g>
     <g id="line2d_133">
      <g>
       <use xlink:href="#m751424d3a8" x="365.249881" y="110.438087" style="stroke: #000000; stroke-width: 0.6"/>
      </g>
     </g>
    </g>
    <g id="ytick_57">
     <g id="line2d_134">
      <path d="M 365.249881 107.815336 
L 640.018425 107.815336 
" clip-path="url(#p3f4cab839c)" style="fill: none; stroke: #b0b0b0; stroke-width: 0.8; stroke-linecap: square"/>
     </g>
     <g id="line2d_135">
      <g>
       <use xlink:href="#m751424d3a8" x="365.249881" y="107.815336" style="stroke: #000000; stroke-width: 0.6"/>
      </g>
     </g>
    </g>
    <g id="ytick_58">
     <g id="line2d_136">
      <path d="M 365.249881 90.03445 
L 640.018425 90.03445 
" clip-path="url(#p3f4cab839c)" style="fill: none; stroke: #b0b0b0; stroke-width: 0.8; stroke-linecap: square"/>
     </g>
     <g id="line2d_137">
      <g>
       <use xlink:href="#m751424d3a8" x="365.249881" y="90.03445" style="stroke: #000000; stroke-width: 0.6"/>
      </g>
     </g>
    </g>
    <g id="ytick_59">
     <g id="line2d_138">
      <path d="M 365.249881 81.005697 
L 640.018425 81.005697 
" clip-path="url(#p3f4cab839c)" style="fill: none; stroke: #b0b0b0; stroke-width: 0.8; stroke-linecap: square"/>
     </g>
     <g id="line2d_139">
      <g>
       <use xlink:href="#m751424d3a8" x="365.249881" y="81.005697" style="stroke: #000000; stroke-width: 0.6"/>
      </g>
     </g>
    </g>
    <g id="ytick_60">
     <g id="line2d_140">
      <path d="M 365.249881 74.599695 
L 640.018425 74.599695 
" clip-path="url(#p3f4cab839c)" style="fill: none; stroke: #b0b0b0; stroke-width: 0.8; stroke-linecap: square"/>
     </g>
     <g id="line2d_141">
      <g>
       <use xlink:href="#m751424d3a8" x="365.249881" y="74.599695" style="stroke: #000000; stroke-width: 0.6"/>
      </g>
     </g>
    </g>
    <g id="ytick_61">
     <g id="line2d_142">
      <path d="M 365.249881 69.630814 
L 640.018425 69.630814 
" clip-path="url(#p3f4cab839c)" style="fill: none; stroke: #b0b0b0; stroke-width: 0.8; stroke-linecap: square"/>
     </g>
     <g id="line2d_143">
      <g>
       <use xlink:href="#m751424d3a8" x="365.249881" y="69.630814" style="stroke: #000000; stroke-width: 0.6"/>
      </g>
     </g>
    </g>
    <g id="ytick_62">
     <g id="line2d_144">
      <path d="M 365.249881 65.570942 
L 640.018425 65.570942 
" clip-path="url(#p3f4cab839c)" style="fill: none; stroke: #b0b0b0; stroke-width: 0.8; stroke-linecap: square"/>
     </g>
     <g id="line2d_145">
      <g>
       <use xlink:href="#m751424d3a8" x="365.249881" y="65.570942" style="stroke: #000000; stroke-width: 0.6"/>
      </g>
     </g>
    </g>
    <g id="ytick_63">
     <g id="line2d_146">
      <path d="M 365.249881 62.138369 
L 640.018425 62.138369 
" clip-path="url(#p3f4cab839c)" style="fill: none; stroke: #b0b0b0; stroke-width: 0.8; stroke-linecap: square"/>
     </g>
     <g id="line2d_147">
      <g>
       <use xlink:href="#m751424d3a8" x="365.249881" y="62.138369" style="stroke: #000000; stroke-width: 0.6"/>
      </g>
     </g>
    </g>
    <g id="ytick_64">
     <g id="line2d_148">
      <path d="M 365.249881 59.16494 
L 640.018425 59.16494 
" clip-path="url(#p3f4cab839c)" style="fill: none; stroke: #b0b0b0; stroke-width: 0.8; stroke-linecap: square"/>
     </g>
     <g id="line2d_149">
      <g>
       <use xlink:href="#m751424d3a8" x="365.249881" y="59.16494" style="stroke: #000000; stroke-width: 0.6"/>
      </g>
     </g>
    </g>
    <g id="ytick_65">
     <g id="line2d_150">
      <path d="M 365.249881 56.542189 
L 640.018425 56.542189 
" clip-path="url(#p3f4cab839c)" style="fill: none; stroke: #b0b0b0; stroke-width: 0.8; stroke-linecap: square"/>
     </g>
     <g id="line2d_151">
      <g>
       <use xlink:href="#m751424d3a8" x="365.249881" y="56.542189" style="stroke: #000000; stroke-width: 0.6"/>
      </g>
     </g>
    </g>
    <g id="text_25">
     <!-- Peak memory usage (GB) -->
     <g transform="translate(331.598647 210.3885) rotate(-90) scale(0.1 -0.1)">
      <defs>
       <path id="CMSS17-50" d="M 2106 1856 
C 2874 1856 3501 2453 3501 3158 
C 3501 3850 2899 4453 2067 4453 
L 570 4453 
L 570 0 
L 1107 0 
L 1107 1856 
L 2106 1856 
z
M 1926 4096 
C 2669 4096 2995 3627 2995 3157 
C 2995 2720 2694 2226 1926 2226 
L 1094 2226 
L 1094 4096 
L 1926 4096 
z
" transform="scale(0.015625)"/>
       <path id="CMSS17-79" d="M 2675 2752 
L 2176 2752 
C 1632 1294 1446 702 1434 383 
L 1427 383 
C 1408 696 1126 1460 902 2007 
L 602 2752 
L 83 2752 
L 1216 13 
C 1146 -178 1043 -465 1011 -529 
C 870 -885 774 -885 672 -885 
C 646 -885 442 -885 211 -809 
L 250 -1229 
C 410 -1261 570 -1280 685 -1280 
C 845 -1280 1165 -1280 1459 -497 
L 2675 2752 
z
" transform="scale(0.015625)"/>
       <path id="CMSS17-67" d="M 2848 2808 
C 2483 2808 2170 2738 1914 2617 
C 1702 2777 1485 2808 1338 2808 
C 781 2808 358 2349 358 1814 
C 358 1468 550 1207 563 1195 
C 448 1035 384 863 384 672 
C 384 448 474 289 544 200 
C 211 -3 166 -314 166 -435 
C 166 -898 749 -1280 1498 -1280 
C 2253 -1280 2835 -898 2835 -428 
C 2835 448 1856 448 1587 448 
L 1069 448 
C 973 448 717 448 717 791 
C 717 921 774 1004 781 1010 
C 877 940 1075 832 1338 832 
C 1869 832 2310 1278 2310 1827 
C 2310 2132 2170 2355 2112 2432 
L 2131 2432 
C 2150 2432 2419 2432 2515 2432 
C 2720 2432 2739 2429 2918 2419 
L 2848 2808 
z
M 1338 1182 
C 1120 1182 813 1315 813 1823 
C 813 2375 1165 2464 1331 2464 
C 1549 2464 1856 2331 1856 1823 
C 1856 1271 1504 1182 1338 1182 
z
M 1581 -10 
C 1734 -10 2381 -10 2381 -442 
C 2381 -714 1984 -929 1504 -929 
C 1018 -929 621 -720 621 -435 
C 621 -403 621 -10 1062 -10 
L 1581 -10 
z
" transform="scale(0.015625)"/>
       <path id="CMSS17-47" d="M 3610 1856 
L 2336 1856 
L 2336 1461 
L 3123 1461 
L 3123 471 
C 2874 401 2618 350 2362 350 
C 1466 350 934 1301 934 2200 
C 934 3095 1491 4032 2362 4032 
C 2854 4032 3130 3881 3469 3627 
L 3552 4134 
C 3130 4351 2867 4440 2387 4440 
C 1146 4440 397 3324 397 2182 
C 397 1090 1152 -64 2349 -64 
C 2797 -64 3213 51 3610 248 
L 3610 1856 
z
" transform="scale(0.015625)"/>
       <path id="CMSS17-42" d="M 570 4416 
L 570 0 
L 2163 0 
C 3034 0 3667 574 3667 1200 
C 3667 1685 3251 2176 2502 2317 
C 3334 2558 3501 3040 3501 3313 
C 3501 3883 2874 4416 1997 4416 
L 570 4416 
z
M 1088 2496 
L 1088 4059 
L 1824 4059 
C 2483 4059 3002 3724 3002 3306 
C 3002 2926 2592 2496 1766 2496 
L 1088 2496 
z
M 1088 357 
L 1088 2107 
L 1939 2107 
C 2630 2107 3162 1679 3162 1206 
C 3162 772 2694 357 1984 357 
L 1088 357 
z
" transform="scale(0.015625)"/>
      </defs>
      <use xlink:href="#CMSS17-50" transform="scale(0.996264)"/>
      <use xlink:href="#CMSS17-65" transform="translate(57.133132 0) scale(0.996264)"/>
      <use xlink:href="#CMSS17-61" transform="translate(98.771954 0) scale(0.996264)"/>
      <use xlink:href="#CMSS17-6b" transform="translate(143.693875 0) scale(0.996264)"/>
      <use xlink:href="#CMSS17-6d" transform="translate(220.525477 0) scale(0.996264)"/>
      <use xlink:href="#CMSS17-65" transform="translate(294.754731 0) scale(0.996264)"/>
      <use xlink:href="#CMSS17-6d" transform="translate(336.393553 0) scale(0.996264)"/>
      <use xlink:href="#CMSS17-6f" transform="translate(410.622808 0) scale(0.996264)"/>
      <use xlink:href="#CMSS17-72" transform="translate(454.863977 0) scale(0.996264)"/>
      <use xlink:href="#CMSS17-79" transform="translate(486.77375 0) scale(0.996264)"/>
      <use xlink:href="#CMSS17-75" transform="translate(561.003004 0) scale(0.996264)"/>
      <use xlink:href="#CMSS17-73" transform="translate(609.207948 0) scale(0.996264)"/>
      <use xlink:href="#CMSS17-61" transform="translate(645.12149 0) scale(0.996264)"/>
      <use xlink:href="#CMSS17-67" transform="translate(690.04341 0) scale(0.996264)"/>
      <use xlink:href="#CMSS17-65" transform="translate(736.887034 0) scale(0.996264)"/>
      <use xlink:href="#CMSS17-28" transform="translate(809.754969 0) scale(0.996264)"/>
      <use xlink:href="#CMSS17-47" transform="translate(846.188883 0) scale(0.996264)"/>
      <use xlink:href="#CMSS17-42" transform="translate(908.647108 0) scale(0.996264)"/>
      <use xlink:href="#CMSS17-29" transform="translate(970.985148 0) scale(0.996264)"/>
     </g>
    </g>
   </g>
   <g id="line2d_152">
    <path d="M 365.249881 238.867203 
L 420.20359 236.086398 
L 475.157298 236.127282 
L 530.111007 236.546719 
L 585.064716 236.22824 
L 640.018425 238.042511 
" clip-path="url(#p3f4cab839c)" style="fill: none; stroke-dasharray: 1.5,2.475; stroke-dashoffset: 0; stroke: #1f77b4; stroke-width: 1.5"/>
   </g>
   <g id="line2d_153">
    <path d="M 365.249881 207.442203 
L 420.20359 182.95498 
L 475.157298 182.442657 
L 530.111007 182.365957 
L 585.064716 181.753191 
L 640.018425 180.51456 
" clip-path="url(#p3f4cab839c)" style="fill: none; stroke-dasharray: 1.5,2.475; stroke-dashoffset: 0; stroke: #ff7f0e; stroke-width: 1.5"/>
   </g>
   <g id="line2d_154">
    <path d="M 365.249881 206.482279 
L 420.20359 182.619337 
L 475.157298 182.771041 
L 530.111007 182.288397 
L 585.064716 182.263165 
L 640.018425 182.004364 
" clip-path="url(#p3f4cab839c)" style="fill: none; stroke-dasharray: 1.5,2.475; stroke-dashoffset: 0; stroke: #2ca02c; stroke-width: 1.5"/>
   </g>
   <g id="line2d_155">
    <path d="M 365.249881 238.482508 
L 420.20359 235.697066 
L 475.157298 236.847049 
L 530.111007 234.38127 
L 585.064716 230.389898 
L 640.018425 227.795549 
" clip-path="url(#p3f4cab839c)" style="fill: none; stroke-dasharray: 5.55,2.4; stroke-dashoffset: 0; stroke: #1f77b4; stroke-width: 1.5"/>
   </g>
   <g id="line2d_156">
    <path d="M 365.249881 212.24956 
L 420.20359 183.095611 
L 475.157298 182.275777 
L 530.111007 182.914839 
L 585.064716 180.847314 
L 640.018425 180.152272 
" clip-path="url(#p3f4cab839c)" style="fill: none; stroke-dasharray: 5.55,2.4; stroke-dashoffset: 0; stroke: #ff7f0e; stroke-width: 1.5"/>
   </g>
   <g id="line2d_157">
    <path d="M 365.249881 200.491902 
L 420.20359 180.774074 
L 475.157298 180.334478 
L 530.111007 180.746049 
L 585.064716 180.694282 
L 640.018425 179.995068 
" clip-path="url(#p3f4cab839c)" style="fill: none; stroke-dasharray: 5.55,2.4; stroke-dashoffset: 0; stroke: #2ca02c; stroke-width: 1.5"/>
   </g>
   <g id="line2d_158">
    <path d="M 365.249881 179.008995 
L 420.20359 164.743017 
L 475.157298 152.285884 
L 530.111007 138.19872 
L 585.064716 124.209053 
L 640.018425 114.720798 
" clip-path="url(#p3f4cab839c)" style="fill: none; stroke: #1f77b4; stroke-width: 1.5; stroke-linecap: square"/>
   </g>
   <g id="line2d_159">
    <path d="M 365.249881 167.583906 
L 420.20359 159.154592 
L 475.157298 154.485605 
L 530.111007 142.096316 
L 585.064716 139.484231 
L 640.018425 138.144097 
" clip-path="url(#p3f4cab839c)" style="fill: none; stroke: #ff7f0e; stroke-width: 1.5; stroke-linecap: square"/>
   </g>
   <g id="line2d_160">
    <path d="M 365.249881 159.333383 
L 420.20359 149.172044 
L 475.157298 136.980087 
L 530.111007 122.157825 
L 585.064716 107.156785 
L 640.018425 91.882155 
" clip-path="url(#p3f4cab839c)" style="fill: none; stroke: #2ca02c; stroke-width: 1.5; stroke-linecap: square"/>
   </g>
   <g id="patch_8">
    <path d="M 365.249881 259.288647 
L 365.249881 54.196058 
" style="fill: none; stroke: #000000; stroke-width: 0.8; stroke-linejoin: miter; stroke-linecap: square"/>
   </g>
   <g id="patch_9">
    <path d="M 640.018425 259.288647 
L 640.018425 54.196058 
" style="fill: none; stroke: #000000; stroke-width: 0.8; stroke-linejoin: miter; stroke-linecap: square"/>
   </g>
   <g id="patch_10">
    <path d="M 365.249881 259.288647 
L 640.018425 259.288647 
" style="fill: none; stroke: #000000; stroke-width: 0.8; stroke-linejoin: miter; stroke-linecap: square"/>
   </g>
   <g id="patch_11">
    <path d="M 365.249881 54.196058 
L 640.018425 54.196058 
" style="fill: none; stroke: #000000; stroke-width: 0.8; stroke-linejoin: miter; stroke-linecap: square"/>
   </g>
  </g>
  <g id="legend_1">
   <g id="patch_12">
    <path d="M 2 46.780957 
L 351.185561 46.780957 
Q 353.185561 46.780957 353.185561 44.780957 
L 353.185561 2 
Q 353.185561 0 351.185561 0 
L 2 0 
Q 0 0 0 2 
L 0 44.780957 
Q 0 46.780957 2 46.780957 
z
" style="fill: #ffffff; opacity: 0.8; stroke: #cccccc; stroke-linejoin: miter"/>
   </g>
   <g id="text_26">
    <!-- Zarr V3 implementation -->
    <g transform="translate(126.641138 10.918498) scale(0.1 -0.1)">
     <defs>
      <path id="CMSS17-5a" d="M 3341 4155 
L 3341 4416 
L 416 4416 
L 416 4015 
L 1613 4015 
C 1690 4015 1766 4015 1843 4015 
L 2662 4015 
L 333 274 
L 333 0 
L 3373 0 
L 3373 414 
L 2803 414 
C 2272 414 1734 414 1203 414 
L 1011 414 
L 3341 4155 
z
" transform="scale(0.015625)"/>
      <path id="CMSS17-56" d="M 3910 4416 
L 3411 4416 
L 2304 1362 
C 2272 1273 2074 688 2035 484 
L 2029 484 
C 1978 726 1773 1292 1664 1604 
L 922 3672 
L 646 4416 
L 83 4416 
L 1715 0 
L 2278 0 
L 3910 4416 
z
" transform="scale(0.015625)"/>
     </defs>
     <use xlink:href="#CMSS17-5a" transform="scale(0.996264)"/>
     <use xlink:href="#CMSS17-61" transform="translate(57.253333 0) scale(0.996264)"/>
     <use xlink:href="#CMSS17-72" transform="translate(99.5728 0) scale(0.996264)"/>
     <use xlink:href="#CMSS17-72" transform="translate(131.482572 0) scale(0.996264)"/>
     <use xlink:href="#CMSS17-56" transform="translate(194.621457 0) scale(0.996264)"/>
     <use xlink:href="#CMSS17-33" transform="translate(256.839312 0) scale(0.996264)"/>
     <use xlink:href="#CMSS17-69" transform="translate(334.912049 0) scale(0.996264)"/>
     <use xlink:href="#CMSS17-6d" transform="translate(357.092772 0) scale(0.996264)"/>
     <use xlink:href="#CMSS17-70" transform="translate(431.322026 0) scale(0.996264)"/>
     <use xlink:href="#CMSS17-6c" transform="translate(479.526969 0) scale(0.996264)"/>
     <use xlink:href="#CMSS17-65" transform="translate(501.707692 0) scale(0.996264)"/>
     <use xlink:href="#CMSS17-6d" transform="translate(543.346514 0) scale(0.996264)"/>
     <use xlink:href="#CMSS17-65" transform="translate(617.575769 0) scale(0.996264)"/>
     <use xlink:href="#CMSS17-6e" transform="translate(659.214591 0) scale(0.996264)"/>
     <use xlink:href="#CMSS17-74" transform="translate(707.419534 0) scale(0.996264)"/>
     <use xlink:href="#CMSS17-61" transform="translate(741.251101 0) scale(0.996264)"/>
     <use xlink:href="#CMSS17-74" transform="translate(786.173021 0) scale(0.996264)"/>
     <use xlink:href="#CMSS17-69" transform="translate(820.004588 0) scale(0.996264)"/>
     <use xlink:href="#CMSS17-6f" transform="translate(842.185311 0) scale(0.996264)"/>
     <use xlink:href="#CMSS17-6e" transform="translate(889.028934 0) scale(0.996264)"/>
    </g>
   </g>
   <g id="line2d_161">
    <path d="M 4 21.827657 
L 14 21.827657 
L 24 21.827657 
" style="fill: none; stroke: #1f77b4; stroke-width: 1.5; stroke-linecap: square"/>
   </g>
   <g id="text_27">
    <!-- LDeakin/zarrs (0.17.0) -->
    <g transform="translate(32 25.327657) scale(0.1 -0.1)">
     <defs>
      <path id="CMSS17-4c" d="M 1670 414 
C 1594 414 1517 414 1440 414 
L 1101 414 
L 1101 4416 
L 563 4416 
L 563 0 
L 3002 0 
L 3002 414 
L 1670 414 
z
" transform="scale(0.015625)"/>
      <path id="CMSS17-44" d="M 570 4416 
L 570 0 
L 2144 0 
C 3194 0 4000 980 4000 2170 
C 4000 3398 3194 4416 2144 4416 
L 570 4416 
z
M 1094 357 
L 1094 4059 
L 2003 4059 
C 2861 4059 3475 3277 3475 2170 
C 3475 1107 2867 357 2003 357 
L 1094 357 
z
" transform="scale(0.015625)"/>
      <path id="CMSS17-2f" d="M 2637 4545 
C 2669 4627 2669 4640 2669 4653 
C 2669 4729 2611 4768 2560 4768 
C 2483 4768 2458 4717 2432 4640 
L 365 -1377 
C 333 -1460 333 -1473 333 -1486 
C 333 -1562 390 -1600 442 -1600 
C 518 -1600 544 -1549 570 -1473 
L 2637 4545 
z
" transform="scale(0.015625)"/>
      <path id="CMSS17-7a" d="M 2400 2502 
L 2400 2750 
L 250 2750 
L 250 2368 
L 1069 2368 
C 1146 2368 1222 2368 1299 2368 
L 1747 2368 
L 166 261 
L 166 0 
L 2419 0 
L 2419 395 
L 1549 395 
C 1472 395 1395 395 1318 395 
L 826 395 
L 2400 2502 
z
" transform="scale(0.015625)"/>
      <path id="CMSS17-30" d="M 2758 2044 
C 2758 2405 2752 3077 2490 3596 
C 2227 4096 1805 4229 1504 4229 
C 1069 4229 698 3975 506 3570 
C 301 3146 243 2709 243 2044 
C 243 1589 262 1031 493 543 
C 755 5 1197 -128 1498 -128 
C 1894 -128 2278 81 2496 518 
C 2720 974 2758 1474 2758 2044 
z
M 1498 261 
C 1011 261 864 811 819 995 
C 742 1310 730 1614 730 2114 
C 730 2506 730 2948 851 3297 
C 998 3701 1254 3840 1498 3840 
C 1971 3840 2125 3372 2176 3208 
C 2272 2873 2272 2481 2272 2114 
C 2272 1526 2272 261 1498 261 
z
" transform="scale(0.015625)"/>
      <path id="CMSS17-2e" d="M 1088 510 
L 576 510 
L 576 0 
L 1088 0 
L 1088 510 
z
" transform="scale(0.015625)"/>
      <path id="CMSS17-37" d="M 1389 3776 
C 1466 3776 1542 3776 1619 3776 
L 2355 3776 
C 1440 2711 915 1365 915 -32 
L 1427 -32 
C 1427 1323 1875 2696 2752 3795 
L 2752 4209 
L 250 4209 
L 250 3776 
L 1389 3776 
z
" transform="scale(0.015625)"/>
     </defs>
     <use xlink:href="#CMSS17-4c" transform="scale(0.996264)"/>
     <use xlink:href="#CMSS17-44" transform="translate(50.687105 0) scale(0.996264)"/>
     <use xlink:href="#CMSS17-65" transform="translate(118.229947 0) scale(0.996264)"/>
     <use xlink:href="#CMSS17-61" transform="translate(159.868769 0) scale(0.996264)"/>
     <use xlink:href="#CMSS17-6b" transform="translate(204.79069 0) scale(0.996264)"/>
     <use xlink:href="#CMSS17-69" transform="translate(250.393179 0) scale(0.996264)"/>
     <use xlink:href="#CMSS17-6e" transform="translate(272.573902 0) scale(0.996264)"/>
     <use xlink:href="#CMSS17-2f" transform="translate(320.778845 0) scale(0.996264)"/>
     <use xlink:href="#CMSS17-7a" transform="translate(367.622469 0) scale(0.996264)"/>
     <use xlink:href="#CMSS17-61" transform="translate(408.30034 0) scale(0.996264)"/>
     <use xlink:href="#CMSS17-72" transform="translate(450.619807 0) scale(0.996264)"/>
     <use xlink:href="#CMSS17-72" transform="translate(482.52958 0) scale(0.996264)"/>
     <use xlink:href="#CMSS17-73" transform="translate(514.439352 0) scale(0.996264)"/>
     <use xlink:href="#CMSS17-28" transform="translate(581.582007 0) scale(0.996264)"/>
     <use xlink:href="#CMSS17-30" transform="translate(618.015921 0) scale(0.996264)"/>
     <use xlink:href="#CMSS17-2e" transform="translate(664.859545 0) scale(0.996264)"/>
     <use xlink:href="#CMSS17-31" transform="translate(690.88375 0) scale(0.996264)"/>
     <use xlink:href="#CMSS17-37" transform="translate(737.727373 0) scale(0.996264)"/>
     <use xlink:href="#CMSS17-2e" transform="translate(784.570997 0) scale(0.996264)"/>
     <use xlink:href="#CMSS17-30" transform="translate(810.595201 0) scale(0.996264)"/>
     <use xlink:href="#CMSS17-29" transform="translate(857.438825 0) scale(0.996264)"/>
    </g>
   </g>
   <g id="line2d_162">
    <path d="M 4 36.790297 
L 14 36.790297 
L 24 36.790297 
" style="fill: none; stroke: #ff7f0e; stroke-width: 1.5; stroke-linecap: square"/>
   </g>
   <g id="text_28">
    <!-- google/tensorstore (0.1.65) -->
    <g transform="translate(32 40.290297) scale(0.1 -0.1)">
     <defs>
      <path id="CMSS17-35" d="M 934 3752 
L 2502 3752 
L 2502 4160 
L 467 4160 
L 467 1781 
L 896 1781 
C 1011 2046 1248 2240 1555 2240 
C 1843 2240 2163 1989 2163 1266 
C 2163 493 1709 267 1376 267 
C 966 267 589 512 422 851 
L 218 499 
C 512 49 992 -128 1376 -128 
C 2118 -128 2701 497 2701 1253 
C 2701 2030 2182 2629 1562 2629 
C 1338 2629 1120 2553 934 2399 
L 934 3752 
z
" transform="scale(0.015625)"/>
     </defs>
     <use xlink:href="#CMSS17-67" transform="scale(0.996264)"/>
     <use xlink:href="#CMSS17-6f" transform="translate(46.843624 0) scale(0.996264)"/>
     <use xlink:href="#CMSS17-6f" transform="translate(96.289686 0) scale(0.996264)"/>
     <use xlink:href="#CMSS17-67" transform="translate(143.133309 0) scale(0.996264)"/>
     <use xlink:href="#CMSS17-6c" transform="translate(189.976933 0) scale(0.996264)"/>
     <use xlink:href="#CMSS17-65" transform="translate(212.157656 0) scale(0.996264)"/>
     <use xlink:href="#CMSS17-2f" transform="translate(253.796478 0) scale(0.996264)"/>
     <use xlink:href="#CMSS17-74" transform="translate(300.640101 0) scale(0.996264)"/>
     <use xlink:href="#CMSS17-65" transform="translate(334.471668 0) scale(0.996264)"/>
     <use xlink:href="#CMSS17-6e" transform="translate(376.11049 0) scale(0.996264)"/>
     <use xlink:href="#CMSS17-73" transform="translate(424.315433 0) scale(0.996264)"/>
     <use xlink:href="#CMSS17-6f" transform="translate(460.228975 0) scale(0.996264)"/>
     <use xlink:href="#CMSS17-72" transform="translate(504.470145 0) scale(0.996264)"/>
     <use xlink:href="#CMSS17-73" transform="translate(536.379917 0) scale(0.996264)"/>
     <use xlink:href="#CMSS17-74" transform="translate(572.293459 0) scale(0.996264)"/>
     <use xlink:href="#CMSS17-6f" transform="translate(606.125026 0) scale(0.996264)"/>
     <use xlink:href="#CMSS17-72" transform="translate(650.366196 0) scale(0.996264)"/>
     <use xlink:href="#CMSS17-65" transform="translate(682.275968 0) scale(0.996264)"/>
     <use xlink:href="#CMSS17-28" transform="translate(755.143903 0) scale(0.996264)"/>
     <use xlink:href="#CMSS17-30" transform="translate(791.577817 0) scale(0.996264)"/>
     <use xlink:href="#CMSS17-2e" transform="translate(838.421441 0) scale(0.996264)"/>
     <use xlink:href="#CMSS17-31" transform="translate(864.445646 0) scale(0.996264)"/>
     <use xlink:href="#CMSS17-2e" transform="translate(911.289269 0) scale(0.996264)"/>
     <use xlink:href="#CMSS17-36" transform="translate(937.313474 0) scale(0.996264)"/>
     <use xlink:href="#CMSS17-35" transform="translate(984.157098 0) scale(0.996264)"/>
     <use xlink:href="#CMSS17-29" transform="translate(1031.000721 0) scale(0.996264)"/>
    </g>
   </g>
   <g id="line2d_163">
    <path d="M 165.574325 21.827657 
L 175.574325 21.827657 
L 185.574325 21.827657 
" style="fill: none; stroke: #2ca02c; stroke-width: 1.5; stroke-linecap: square"/>
   </g>
   <g id="text_29">
    <!-- zarr-developers/zarr-python (3.0.0a6) -->
    <g transform="translate(193.574325 25.327657) scale(0.1 -0.1)">
     <defs>
      <path id="CMSS17-2d" d="M 1664 1216 
L 1664 1585 
L 64 1585 
L 64 1216 
L 1664 1216 
z
" transform="scale(0.015625)"/>
      <path id="CMSS17-76" d="M 2675 2752 
L 2176 2752 
L 1747 1556 
C 1613 1165 1421 627 1389 352 
L 1382 352 
C 1370 468 1318 634 1286 749 
C 1248 890 1197 1056 1158 1172 
L 595 2752 
L 83 2752 
L 1094 0 
L 1664 0 
L 2675 2752 
z
" transform="scale(0.015625)"/>
     </defs>
     <use xlink:href="#CMSS17-7a" transform="scale(0.996264)"/>
     <use xlink:href="#CMSS17-61" transform="translate(40.677872 0) scale(0.996264)"/>
     <use xlink:href="#CMSS17-72" transform="translate(82.997338 0) scale(0.996264)"/>
     <use xlink:href="#CMSS17-72" transform="translate(114.907111 0) scale(0.996264)"/>
     <use xlink:href="#CMSS17-2d" transform="translate(146.816884 0) scale(0.996264)"/>
     <use xlink:href="#CMSS17-64" transform="translate(178.045996 0) scale(0.996264)"/>
     <use xlink:href="#CMSS17-65" transform="translate(226.250939 0) scale(0.996264)"/>
     <use xlink:href="#CMSS17-76" transform="translate(267.889762 0) scale(0.996264)"/>
     <use xlink:href="#CMSS17-65" transform="translate(310.889903 0) scale(0.996264)"/>
     <use xlink:href="#CMSS17-6c" transform="translate(352.528725 0) scale(0.996264)"/>
     <use xlink:href="#CMSS17-6f" transform="translate(374.709448 0) scale(0.996264)"/>
     <use xlink:href="#CMSS17-70" transform="translate(421.553072 0) scale(0.996264)"/>
     <use xlink:href="#CMSS17-65" transform="translate(472.360454 0) scale(0.996264)"/>
     <use xlink:href="#CMSS17-72" transform="translate(513.999276 0) scale(0.996264)"/>
     <use xlink:href="#CMSS17-73" transform="translate(545.909048 0) scale(0.996264)"/>
     <use xlink:href="#CMSS17-2f" transform="translate(581.82259 0) scale(0.996264)"/>
     <use xlink:href="#CMSS17-7a" transform="translate(628.666214 0) scale(0.996264)"/>
     <use xlink:href="#CMSS17-61" transform="translate(669.344086 0) scale(0.996264)"/>
     <use xlink:href="#CMSS17-72" transform="translate(711.663552 0) scale(0.996264)"/>
     <use xlink:href="#CMSS17-72" transform="translate(743.573325 0) scale(0.996264)"/>
     <use xlink:href="#CMSS17-2d" transform="translate(775.483097 0) scale(0.996264)"/>
     <use xlink:href="#CMSS17-70" transform="translate(806.71221 0) scale(0.996264)"/>
     <use xlink:href="#CMSS17-79" transform="translate(852.314699 0) scale(0.996264)"/>
     <use xlink:href="#CMSS17-74" transform="translate(895.314841 0) scale(0.996264)"/>
     <use xlink:href="#CMSS17-68" transform="translate(929.146408 0) scale(0.996264)"/>
     <use xlink:href="#CMSS17-6f" transform="translate(977.351351 0) scale(0.996264)"/>
     <use xlink:href="#CMSS17-6e" transform="translate(1024.194974 0) scale(0.996264)"/>
     <use xlink:href="#CMSS17-28" transform="translate(1103.62903 0) scale(0.996264)"/>
     <use xlink:href="#CMSS17-33" transform="translate(1140.062945 0) scale(0.996264)"/>
     <use xlink:href="#CMSS17-2e" transform="translate(1186.906568 0) scale(0.996264)"/>
     <use xlink:href="#CMSS17-30" transform="translate(1212.930773 0) scale(0.996264)"/>
     <use xlink:href="#CMSS17-2e" transform="translate(1259.774396 0) scale(0.996264)"/>
     <use xlink:href="#CMSS17-30" transform="translate(1285.798601 0) scale(0.996264)"/>
     <use xlink:href="#CMSS17-61" transform="translate(1332.642225 0) scale(0.996264)"/>
     <use xlink:href="#CMSS17-36" transform="translate(1377.564145 0) scale(0.996264)"/>
     <use xlink:href="#CMSS17-29" transform="translate(1424.407769 0) scale(0.996264)"/>
    </g>
   </g>
  </g>
  <g id="legend_2">
   <g id="patch_13">
    <path d="M 457.586969 50.736809 
L 646 50.736809 
Q 648 50.736809 648 48.736809 
L 648 2 
Q 648 0 646 0 
L 457.586969 0 
Q 455.586969 0 455.586969 2 
L 455.586969 48.736809 
Q 455.586969 50.736809 457.586969 50.736809 
z
" style="fill: #ffffff; opacity: 0.8; stroke: #cccccc; stroke-linejoin: miter"/>
   </g>
   <g id="text_30">
    <!-- Dataset -->
    <g transform="translate(535.687181 10.918498) scale(0.1 -0.1)">
     <use xlink:href="#CMSS17-44" transform="scale(0.996264)"/>
     <use xlink:href="#CMSS17-61" transform="translate(67.542842 0) scale(0.996264)"/>
     <use xlink:href="#CMSS17-74" transform="translate(112.464762 0) scale(0.996264)"/>
     <use xlink:href="#CMSS17-61" transform="translate(146.296329 0) scale(0.996264)"/>
     <use xlink:href="#CMSS17-73" transform="translate(191.21825 0) scale(0.996264)"/>
     <use xlink:href="#CMSS17-65" transform="translate(227.131792 0) scale(0.996264)"/>
     <use xlink:href="#CMSS17-74" transform="translate(268.770614 0) scale(0.996264)"/>
    </g>
   </g>
   <g id="line2d_164">
    <path d="M 459.586969 27.362452 
L 469.586969 27.362452 
L 479.586969 27.362452 
" style="fill: none; stroke-dasharray: 1.5,2.475; stroke-dashoffset: 0; stroke: #000000; stroke-width: 1.5"/>
   </g>
   <g id="text_31">
    <!-- Uncompressed -->
    <g transform="translate(487.586969 30.862452) scale(0.1 -0.1)">
     <defs>
      <path id="CMSS17-55" d="M 3552 4384 
L 3066 4384 
L 3066 1449 
C 3066 604 2547 229 2074 229 
C 1587 229 1101 623 1101 1443 
L 1101 4384 
L 563 4384 
L 563 1454 
C 563 539 1274 -128 2067 -128 
C 2861 -128 3552 539 3552 1454 
L 3552 4384 
z
" transform="scale(0.015625)"/>
     </defs>
     <use xlink:href="#CMSS17-55" transform="scale(0.996264)"/>
     <use xlink:href="#CMSS17-6e" transform="translate(64.13974 0) scale(0.996264)"/>
     <use xlink:href="#CMSS17-63" transform="translate(112.344683 0) scale(0.996264)"/>
     <use xlink:href="#CMSS17-6f" transform="translate(153.983505 0) scale(0.996264)"/>
     <use xlink:href="#CMSS17-6d" transform="translate(200.827129 0) scale(0.996264)"/>
     <use xlink:href="#CMSS17-70" transform="translate(275.056383 0) scale(0.996264)"/>
     <use xlink:href="#CMSS17-72" transform="translate(320.658873 0) scale(0.996264)"/>
     <use xlink:href="#CMSS17-65" transform="translate(352.568645 0) scale(0.996264)"/>
     <use xlink:href="#CMSS17-73" transform="translate(394.207467 0) scale(0.996264)"/>
     <use xlink:href="#CMSS17-73" transform="translate(430.121009 0) scale(0.996264)"/>
     <use xlink:href="#CMSS17-65" transform="translate(466.034551 0) scale(0.996264)"/>
     <use xlink:href="#CMSS17-64" transform="translate(507.673373 0) scale(0.996264)"/>
    </g>
   </g>
   <g id="line2d_165">
    <path d="M 459.586969 41.299631 
L 469.586969 41.299631 
L 479.586969 41.299631 
" style="fill: none; stroke-dasharray: 5.55,2.4; stroke-dashoffset: 0; stroke: #000000; stroke-width: 1.5"/>
   </g>
   <g id="text_32">
    <!-- Compressed -->
    <g transform="translate(487.586969 44.799631) scale(0.1 -0.1)">
     <use xlink:href="#CMSS17-43" transform="scale(0.996264)"/>
     <use xlink:href="#CMSS17-6f" transform="translate(59.855772 0) scale(0.996264)"/>
     <use xlink:href="#CMSS17-6d" transform="translate(106.699395 0) scale(0.996264)"/>
     <use xlink:href="#CMSS17-70" transform="translate(180.92865 0) scale(0.996264)"/>
     <use xlink:href="#CMSS17-72" transform="translate(226.531139 0) scale(0.996264)"/>
     <use xlink:href="#CMSS17-65" transform="translate(258.440911 0) scale(0.996264)"/>
     <use xlink:href="#CMSS17-73" transform="translate(300.079733 0) scale(0.996264)"/>
     <use xlink:href="#CMSS17-73" transform="translate(335.993275 0) scale(0.996264)"/>
     <use xlink:href="#CMSS17-65" transform="translate(371.906817 0) scale(0.996264)"/>
     <use xlink:href="#CMSS17-64" transform="translate(413.545639 0) scale(0.996264)"/>
    </g>
   </g>
   <g id="line2d_166">
    <path d="M 566.823253 27.362452 
L 576.823253 27.362452 
L 586.823253 27.362452 
" style="fill: none; stroke: #000000; stroke-width: 1.5; stroke-linecap: square"/>
   </g>
   <g id="text_33">
    <!-- Compressed -->
    <g transform="translate(594.823253 24.774175) scale(0.1 -0.1)">
     <use xlink:href="#CMSS17-43" transform="scale(0.996264)"/>
     <use xlink:href="#CMSS17-6f" transform="translate(59.855772 0) scale(0.996264)"/>
     <use xlink:href="#CMSS17-6d" transform="translate(106.699395 0) scale(0.996264)"/>
     <use xlink:href="#CMSS17-70" transform="translate(180.92865 0) scale(0.996264)"/>
     <use xlink:href="#CMSS17-72" transform="translate(226.531139 0) scale(0.996264)"/>
     <use xlink:href="#CMSS17-65" transform="translate(258.440911 0) scale(0.996264)"/>
     <use xlink:href="#CMSS17-73" transform="translate(300.079733 0) scale(0.996264)"/>
     <use xlink:href="#CMSS17-73" transform="translate(335.993275 0) scale(0.996264)"/>
     <use xlink:href="#CMSS17-65" transform="translate(371.906817 0) scale(0.996264)"/>
     <use xlink:href="#CMSS17-64" transform="translate(413.545639 0) scale(0.996264)"/>
    </g>
    <!--  + Sharded -->
    <g transform="translate(594.823253 35.013551) scale(0.1 -0.1)">
     <defs>
      <path id="CMSS17-2b" d="M 2451 1505 
L 4141 1505 
C 4230 1505 4339 1505 4339 1613 
C 4339 1728 4237 1728 4141 1728 
L 2451 1728 
L 2451 3413 
C 2451 3502 2451 3611 2342 3611 
C 2227 3611 2227 3509 2227 3413 
L 2227 1728 
L 531 1728 
C 442 1728 333 1728 333 1620 
C 333 1505 435 1505 531 1505 
L 2227 1505 
L 2227 -186 
C 2227 -275 2227 -384 2336 -384 
C 2451 -384 2451 -282 2451 -186 
L 2451 1505 
z
" transform="scale(0.015625)"/>
      <path id="CMSS17-53" d="M 2797 4169 
C 2515 4334 2208 4480 1690 4480 
C 864 4480 333 3879 333 3266 
C 333 3025 403 2753 653 2475 
C 902 2196 1184 2121 1542 2033 
C 1690 1994 1939 1924 1984 1906 
C 2342 1767 2515 1444 2515 1140 
C 2515 742 2202 318 1645 318 
C 1453 318 890 318 358 819 
L 269 318 
C 794 -64 1363 -128 1651 -128 
C 2438 -128 3002 488 3002 1186 
C 3002 1440 2925 1763 2656 2061 
C 2394 2347 2163 2410 1638 2549 
C 1338 2626 1146 2677 986 2873 
C 877 3013 819 3146 819 3317 
C 819 3673 1126 4060 1690 4060 
C 1971 4060 2336 4002 2707 3660 
L 2797 4169 
z
" transform="scale(0.015625)"/>
     </defs>
     <use xlink:href="#CMSS17-2b" transform="scale(0.996264)"/>
     <use xlink:href="#CMSS17-53" transform="translate(104.097048 0) scale(0.996264)"/>
     <use xlink:href="#CMSS17-68" transform="translate(156.145564 0) scale(0.996264)"/>
     <use xlink:href="#CMSS17-61" transform="translate(204.350507 0) scale(0.996264)"/>
     <use xlink:href="#CMSS17-72" transform="translate(246.669974 0) scale(0.996264)"/>
     <use xlink:href="#CMSS17-64" transform="translate(278.579746 0) scale(0.996264)"/>
     <use xlink:href="#CMSS17-65" transform="translate(326.784689 0) scale(0.996264)"/>
     <use xlink:href="#CMSS17-64" transform="translate(368.423511 0) scale(0.996264)"/>
    </g>
   </g>
  </g>
 </g>
 <defs>
  <clipPath id="pf9e1004854">
   <rect x="37.896788" y="54.196058" width="274.768544" height="205.092588"/>
  </clipPath>
  <clipPath id="p3f4cab839c">
   <rect x="365.249881" y="54.196058" width="274.768544" height="205.092588"/>
  </clipPath>
 </defs>
</svg>
